<svg xmlns="http://www.w3.org/2000/svg" xmlns:xlink="http://www.w3.org/1999/xlink" viewBox="0 0 38.9 25.66"><defs><style>.cls-1{mask:url(#mask);}.cls-2{fill:#eaeaea;}.cls-3{filter:url(#luminosity-noclip);}</style><filter id="luminosity-noclip" x="0" y="-8270.14" width="7.83" height="32766" filterUnits="userSpaceOnUse" color-interpolation-filters="sRGB"><feFlood flood-color="#fff" result="bg"/><feBlend in="SourceGraphic" in2="bg"/></filter><mask id="mask" x="0" y="-8270.14" width="7.83" height="32766" maskUnits="userSpaceOnUse"><g class="cls-3"/></mask></defs><g id="Layer_2" data-name="Layer 2"><g id="Version_11" data-name="Version 11"><g class="cls-1"><path class="cls-2" d="M7.27,5.51A9.14,9.14,0,0,0,7.69,4a5.74,5.74,0,0,0,.12-.82,2.82,2.82,0,0,0,0-.42,2.73,2.73,0,0,0,0-.61,2.34,2.34,0,0,0-.13-.51,2.08,2.08,0,0,0-.77-1A2,2,0,0,0,6.2.4,2.59,2.59,0,0,0,4.5.74a2.92,2.92,0,0,0-.62.41,2.36,2.36,0,0,0-.75,1.16,2.65,2.65,0,0,0-.06.61,2.59,2.59,0,0,0,.06.62,1.73,1.73,0,0,0,.39.77A1.51,1.51,0,0,0,4,4.65a2.09,2.09,0,0,0,1.95-.16,1.81,1.81,0,0,0,.68-.75,1.77,1.77,0,0,0,.13-1.09,1.15,1.15,0,0,0-.07-.27l-.2.13a.62.62,0,0,1-.34.07.8.8,0,0,1-.5-.24.82.82,0,0,1-.32-.58.75.75,0,0,1,.55-.61.91.91,0,0,1,.81.21A1.13,1.13,0,0,1,7,1.7a2.61,2.61,0,0,1,.2,1,6.51,6.51,0,0,1-.27,1.63,5.56,5.56,0,0,1-.44,1.12A3.6,3.6,0,0,1,5.33,6.81a2.49,2.49,0,0,1-2.2.47A2.33,2.33,0,0,1,1.91,5.85a3.52,3.52,0,0,1,0-2.28,6.15,6.15,0,0,1,.62-1.33,5.25,5.25,0,0,1,.75-1.05c.11-.1.2-.19.27-.24S3.88.68,4,.54a7.83,7.83,0,0,0-.75.34A7.82,7.82,0,0,0,1.43,2.17a7.44,7.44,0,0,0-.61.68,3.76,3.76,0,0,0-.48.75A3.9,3.9,0,0,0,.41,6.94a2.8,2.8,0,0,0,.48.68A3.34,3.34,0,0,0,2,8.44a3.2,3.2,0,0,0,1.1.23,4.5,4.5,0,0,0,1.29-.16l.41-.13a3.27,3.27,0,0,0,.54-.27s.21-.13.41-.28A5.92,5.92,0,0,0,7.27,5.51Z"/></g><path class="cls-2" d="M37.83,3.94a1,1,0,0,1,.34-.21.56.56,0,0,1,.25,0,2.53,2.53,0,0,1,.48,0l-.41-.82a5.23,5.23,0,0,0-1.44.06,6.31,6.31,0,0,0-1.23.35,3.19,3.19,0,0,0-1,.61,4.33,4.33,0,0,0-.95,1A10.12,10.12,0,0,0,33,6.21a3.55,3.55,0,0,1-.55.68.44.44,0,0,1-.19.13h-.08A.35.35,0,0,1,31.92,7a.35.35,0,0,1,0-.41l2-3.49H32.34L30.48,6.38a.91.91,0,0,1-.26.29.56.56,0,0,1-.29.14.52.52,0,0,1-.24,0,.59.59,0,0,1-.19-.29.56.56,0,0,1,.1-.38l1.84-3H29.77L28.61,5.19a2.08,2.08,0,0,1-.68.68,3.1,3.1,0,0,1-.41.27,3.27,3.27,0,0,0,.34-1.23,1.69,1.69,0,0,0-.12-1.05,1.61,1.61,0,0,0-1.11-.72,2,2,0,0,0-1.36.2L27.11,0H25.47L21.79,6.55a.69.69,0,0,1-.21.21c-.24.15-.6.16-.68,0h0a.36.36,0,0,1-.06-.25.61.61,0,0,1,.06-.19l1.84-3.21H21.13l-2,3.56a.53.53,0,0,1-.27.27.47.47,0,0,1-.34,0,.32.32,0,0,1-.19-.13.39.39,0,0,1,.05-.43l1-1.7a1.08,1.08,0,0,0,.2-.41,1,1,0,0,0-.13-.68.87.87,0,0,0-.35-.34,1.14,1.14,0,0,0-.95.06h0a1.3,1.3,0,0,0-.41.28l.27-.48H16.41L14.49,6.56l-.08.14a.56.56,0,0,1-.33.27.26.26,0,0,1-.23,0,.22.22,0,0,1-.09-.14.44.44,0,0,1,.05-.37l1-1.84A1,1,0,0,0,15,4.1a.87.87,0,0,0-.14-.48,1,1,0,0,0-.61-.48,1.21,1.21,0,0,0-.54,0,1.69,1.69,0,0,0-.49.19,1.93,1.93,0,0,0-.41.35,1,1,0,0,0-.14-.17,1.29,1.29,0,0,0-.54-.31,1.18,1.18,0,0,0-.34-.07,1.31,1.31,0,0,0-.83.27,1.17,1.17,0,0,0-.27.28,2.58,2.58,0,0,0-.61-.35l-.12,0a1.21,1.21,0,0,0-.3,0,1.81,1.81,0,0,0-.88.2,2.76,2.76,0,0,0-.42.27A1.84,1.84,0,0,0,8,4.14a1.32,1.32,0,0,0-.24.48,1.13,1.13,0,0,0,0,.3h.13a1.15,1.15,0,0,1,.35,0,.34.34,0,0,1,.2.13.34.34,0,0,1,.07.21.55.55,0,0,1-.14.41L6.76,8.48H8.32l1.71-3a1.05,1.05,0,0,1,.21-.27.44.44,0,0,1,.27-.14.28.28,0,0,1,.16,0,.18.18,0,0,1,.1.09c0,.08,0,.14,0,.15L8.94,8.4h1.64L12.3,5.35a.63.63,0,0,1,.14-.21A.39.39,0,0,1,12.71,5a.31.31,0,0,1,.27.14.25.25,0,0,1,0,.16A17.62,17.62,0,0,1,12,7.2a.77.77,0,0,0-.09.47.74.74,0,0,0,.3.49.91.91,0,0,0,.26.16,1.45,1.45,0,0,0,1.25-.16A1.64,1.64,0,0,0,14,7.89l-.41.59h1.58l1.65-3.2s.15-.36.39-.41a.28.28,0,0,1,.16,0,.27.27,0,0,1,.19.27.23.23,0,0,1-.06.14l-.89,1.51a1.07,1.07,0,0,0-.06,1,1.07,1.07,0,0,0,.37.43,1.41,1.41,0,0,0,.51.18,1.81,1.81,0,0,0,1.45-.76,1,1,0,0,0,.32.63,1.12,1.12,0,0,0,1.32,0,2.1,2.1,0,0,0,.62-.48l-.34.65h1.74l.61-1.17a1.4,1.4,0,0,0,.55.89A1.75,1.75,0,0,0,25,8.25a4.35,4.35,0,0,0,1-.33c.26-.12.48-.24.91-.48L27.75,7a5,5,0,0,0,.2.48l.28.48a1.18,1.18,0,0,0,.68.48,1.3,1.3,0,0,0,1-.14,1.42,1.42,0,0,0,.27-.21,2.12,2.12,0,0,0,.21-.2.7.7,0,0,0,.27.34,1.71,1.71,0,0,0,.41.14,1.62,1.62,0,0,0,.82,0,2.43,2.43,0,0,0,.62-.28A1.65,1.65,0,0,0,33,7.44c.2-.27.34-.62.61-1,.45-.67.64-1,.82-1.23A4.08,4.08,0,0,1,36.16,4a3.14,3.14,0,0,1,.55-.14,1.45,1.45,0,0,0-.27.41,1.58,1.58,0,0,0-.14.82,7.92,7.92,0,0,0,.41,1.37.71.71,0,0,1,0,.32.7.7,0,0,1-.09.23.54.54,0,0,1-.57.2c-.17-.06-.35-.24-.32-.41s.34-.26.48-.27a.69.69,0,0,1,.34.07,2.12,2.12,0,0,0-.13-.2,1.63,1.63,0,0,0-.69-.49,1.71,1.71,0,0,0-1.43.21.71.71,0,0,0-.16.13.83.83,0,0,0-.19.35,1.3,1.3,0,0,0-.06.73,1.23,1.23,0,0,0,.2.43A1.29,1.29,0,0,0,34.3,8a.65.65,0,0,0,.15.12A2,2,0,0,0,35,8.4a3.32,3.32,0,0,0,.89.13,3,3,0,0,0,1.45-.29.9.9,0,0,0,.19-.12A1.47,1.47,0,0,0,38,7.58a1.87,1.87,0,0,0,.21-.69,2.29,2.29,0,0,0-.31-1.13s0-.1-.09-.2a2.3,2.3,0,0,1-.13-.43A1.41,1.41,0,0,1,37.83,3.94ZM26.16,5.83A4.38,4.38,0,0,1,26,6.3h0l-.13.21a1.88,1.88,0,0,1-1.12.74,1.32,1.32,0,0,1-.22,0,1,1,0,0,1-.29,0A.63.63,0,0,1,23.86,7a1.11,1.11,0,0,1-.14-.57A2.57,2.57,0,0,1,24,5.55a5.46,5.46,0,0,1,.36-.62,1.24,1.24,0,0,1,.23-.25,1.05,1.05,0,0,1,.24-.16,1,1,0,0,1,.48-.13,2,2,0,0,1,.55.06.73.73,0,0,1,.34.28A1.34,1.34,0,0,1,26.16,5.83Z"/><path class="cls-2" d="M22.52,2.64a.74.74,0,0,0,.48.13.87.87,0,0,0,.82-.54.85.85,0,0,0-.12-.78.89.89,0,0,0-.7-.31,1,1,0,0,0-.48.13.87.87,0,0,0-.34.41A.87.87,0,0,0,22.52,2.64Z"/><path class="cls-2" d="M15.91,19.8a1.32,1.32,0,0,0,.74,0,3.75,3.75,0,0,0,.82-.27,1.24,1.24,0,0,0,.61-.54L16.65,18a1.47,1.47,0,0,1,0,.56,1.93,1.93,0,0,1-.75,1.2"/><path class="cls-2" d="M36.18,21.86a1.83,1.83,0,0,0-.47-.94A2.1,2.1,0,0,0,34,20.38a2.55,2.55,0,0,0-1.08.47,3.15,3.15,0,0,0-1,1.21,9.87,9.87,0,0,1-.94,1.55,2.06,2.06,0,0,1-1.21.87,1.27,1.27,0,0,1-1.28-.4,1.23,1.23,0,0,1-.13-.6,1.89,1.89,0,0,1,.16-.78,3.59,3.59,0,0,1,.51-.84c.05-.07.37-.51.74-.47.05,0,.22,0,.27.14s0,.23-.07.26a.42.42,0,0,1-.45.18.32.32,0,0,1-.15-.11,1.19,1.19,0,0,0,.13.54,1,1,0,0,0,1.35.4,1.32,1.32,0,0,0,.64-.64,1.36,1.36,0,0,0-.05-1.2.78.78,0,0,0-.12-.17,2,2,0,0,0-.68-.41,2.6,2.6,0,0,0-1-.07,3.25,3.25,0,0,0-1.82,1,10,10,0,0,0-.61.88l-.35.59c-.21.34-.44.67-.74,1.09s-.36.49-.56.51a.32.32,0,0,1-.25-.56l2-3.58H25.68l-1.61,3a4.32,4.32,0,0,1-.67.74,1.13,1.13,0,0,1-.54.33.63.63,0,0,1-.61,0,.7.7,0,0,1-.4-.47,1,1,0,0,1,0-.41,2.65,2.65,0,0,1,.58-1.2,1.77,1.77,0,0,1,.16-.22l.17-.19a.61.61,0,0,1,.41-.2.36.36,0,0,1,.27.14.77.77,0,0,1-.15.4.87.87,0,0,1-.12.14,1.55,1.55,0,0,0,.36.09,1.09,1.09,0,0,0,.71-.16,1,1,0,0,0,.34-.41,1.12,1.12,0,0,0,.07-1,1,1,0,0,0-.72-.52l-.22,0a2.13,2.13,0,0,0-.54.06,2.45,2.45,0,0,0-1.15,1,1.28,1.28,0,0,0-.26-.61,1.18,1.18,0,0,0-.48-.27,2.14,2.14,0,0,0-.47-.07,2.46,2.46,0,0,0-1.27.41,4,4,0,0,0-1.08.94c-.4.47-.81,1-1.14,1.41a5.61,5.61,0,0,1-.81.88l-.32.19a1.41,1.41,0,0,1-.42.14c-.58.13-1.18.25-1.48-.06a1.14,1.14,0,0,1-.14-.95,1.55,1.55,0,0,0,1.62.47,2.29,2.29,0,0,0,.81-.26,2.14,2.14,0,0,0,.94-1.35c0-.05,0-.1,0-.18a1.59,1.59,0,0,0-.3-1,1.73,1.73,0,0,0-.75-.53l-.09,0a2.31,2.31,0,0,0-.37-.06,2.74,2.74,0,0,0-.67.07,2.89,2.89,0,0,0-.95.41,3.2,3.2,0,0,0-.74.67,11.1,11.1,0,0,0-.8,1.14c-.21.4-.41.94-.54,1.21a1.27,1.27,0,0,1-.21.34.54.54,0,0,1-.29.19.3.3,0,0,1-.2-.05c-.1-.1-.07-.29,0-.41a2.42,2.42,0,0,1,.12-.43c.11-.26.2-.54.33-.79s.64-1.57,1.9-5.24H12.3l-1.82,2.83.41-2.83H9.47l-3.7,5.92a1.09,1.09,0,0,1-.21.26,1.79,1.79,0,0,1-.26.21c-.06,0-.73.46-1.16.17a.54.54,0,0,1-.26-.46c0-.21.24-.32.35-.38a1.11,1.11,0,0,1,.8-.07,2.85,2.85,0,0,0-.24-.33,1.87,1.87,0,0,0-1-.68,1.91,1.91,0,0,0-.81.07,1.63,1.63,0,0,0-.74.4,1.76,1.76,0,0,0-.33.45,1.6,1.6,0,0,0-.08,1,2,2,0,0,0,.34.74,2.34,2.34,0,0,0,.67.54,2.15,2.15,0,0,0,.95.2A3.3,3.3,0,0,0,6,24.42c.22-.25.47-.62.59-.79s.33-.52.42-.69l1.41-2.22-1,4.71,3.22-4.71c-.4,1-.67,2-.87,2.62a2.18,2.18,0,0,0-.14.7,1.35,1.35,0,0,0,.12.71A.93.93,0,0,0,10,25a1.24,1.24,0,0,0,.47.34,1.09,1.09,0,0,0,.67,0,2.88,2.88,0,0,0,.68-.34,1.94,1.94,0,0,0,.54-.74c-.07.14.26.47.4.61l.13.11a2.3,2.3,0,0,0,1.54.35,2.8,2.8,0,0,0,.82-.2c.31-.12.56-.24.74-.33a2,2,0,0,0,.28-.16,3.37,3.37,0,0,0,.53-.44c.33-.34.74-.81,1.07-1.22l.94-1.07s.58-.65,1.06-.65h0a.7.7,0,0,1,.36.09.81.81,0,0,1,.33.63,1.08,1.08,0,0,1,0,.35.49.49,0,0,1-.05.18,3.61,3.61,0,0,1-1,1.62.24.24,0,0,1-.38-.22.33.33,0,0,1,.11-.25.47.47,0,0,1,.33-.14,2,2,0,0,0-.8-.27,1.16,1.16,0,0,0-.38.06,1.41,1.41,0,0,0-.3.15,1.25,1.25,0,0,0-.53,1.07A1.33,1.33,0,0,0,19,25.63a1.52,1.52,0,0,0,.67-.27,2.31,2.31,0,0,0,.54-.54,1.75,1.75,0,0,0,.14.24,1.61,1.61,0,0,0,.93.57,1.82,1.82,0,0,0,.88-.07,3.23,3.23,0,0,0,1.21-.6,1.43,1.43,0,0,0,.54.53,1.79,1.79,0,0,0,1.95-.33,2,2,0,0,0,.6-1,3.25,3.25,0,0,0,.26.4,2.71,2.71,0,0,0,1.09.88,2.79,2.79,0,0,0,2.35-.21,3,3,0,0,0,.95-.8,1.42,1.42,0,0,0,.4.54,2.37,2.37,0,0,0,.81.53,2.29,2.29,0,0,0,1.27.14,2.5,2.5,0,0,0,1.08-.47,2.85,2.85,0,0,0,.87-1,2.81,2.81,0,0,0,.34-1.3,5,5,0,0,0,.74-.51c.31-.26.54-.52.51-.56s-.19.13-.46.15A.86.86,0,0,1,36.18,21.86Zm-21.48.31a.49.49,0,0,1,.13-.2,1.73,1.73,0,0,1,.4-.34,1,1,0,0,1,.41-.14,1.37,1.37,0,0,1,.41.07.8.8,0,0,1,.27.2.81.81,0,0,1,0,.68,1.07,1.07,0,0,1-.68.57.83.83,0,0,1-.82-.14A.7.7,0,0,1,14.7,22.17ZM35,23.66a2.8,2.8,0,0,1-.4.47,1.85,1.85,0,0,1-.41.34c-.08.05-.7.41-1.08.14a.8.8,0,0,1-.27-.55,2,2,0,0,1,.47-1.48,3.26,3.26,0,0,1,.41-.48,1.63,1.63,0,0,0,.4.48,1.83,1.83,0,0,0,1.36.33A7,7,0,0,1,35,23.66Z"/><path class="cls-2" d="M26.94,18.11h-.15a.81.81,0,0,0-.32,1.48.82.82,0,0,0,.47.13.87.87,0,0,0,.81-.54.76.76,0,0,0,0-.54.87.87,0,0,0-.34-.41A1,1,0,0,0,26.94,18.11Z"/><path class="cls-2" d="M24.59,13.5a1,1,0,0,0-.19-.28h0a1.72,1.72,0,0,0-.55-.32,2.2,2.2,0,0,0-1.22,0,2.66,2.66,0,0,0-1.06.62,2.71,2.71,0,0,0-.34.38,5.65,5.65,0,0,0-.34.56,8.48,8.48,0,0,1-.58,1s-.14.2-.33.41a1.18,1.18,0,0,1-.31.27l-.23.13a.32.32,0,0,1-.23-.06c-.08-.1,0-.28,0-.35.16-.47,2.68-4.81,3.18-5.67H21.12l-1.73,3.24a3.32,3.32,0,0,0-.47-.29,2.06,2.06,0,0,0-.46-.17,2.39,2.39,0,0,0-.58-.06,2.64,2.64,0,0,0-1.33.52,5.32,5.32,0,0,0-.58.46,2.61,2.61,0,0,0-.46.58l-.1.15a2,2,0,0,0-.25,1,2.07,2.07,0,0,0,.12.64,1.49,1.49,0,0,0,.35.57.86.86,0,0,0,.29.23,1.14,1.14,0,0,0,.34.12,2.74,2.74,0,0,0,1,0,2,2,0,0,0,.75-.4,1,1,0,0,0,.4.34,1.31,1.31,0,0,0,.87,0l.23-.08a1.73,1.73,0,0,0,.37-.21,2.08,2.08,0,0,0,.38-.32l.18-.23a.88.88,0,0,0,.11.29,1.34,1.34,0,0,0,.81.55,2.14,2.14,0,0,0,1.16,0,2.75,2.75,0,0,0,.69-.23,3.44,3.44,0,0,0,.47-.23l.29-.75a3.56,3.56,0,0,1-1,.38,1.43,1.43,0,0,1-.65.06c-.13,0-.58-.1-.71-.44a.63.63,0,0,1,0-.46,1.88,1.88,0,0,0,1.1.4,1.84,1.84,0,0,0,.81-.17,1.93,1.93,0,0,0,.93-1A1.73,1.73,0,0,0,24.59,13.5Zm-6.25,2.06c-.46.64-1.21,1-1.56.7s-.29-1.05.23-1.68,1.22-1,1.57-.7S18.81,14.87,18.34,15.56Zm5.5-1.21a.56.56,0,0,1-.07.18,1,1,0,0,1-.37.39.75.75,0,0,1-.72.06.52.52,0,0,1-.23-.34c-.05-.34.27-.6.41-.71a.71.71,0,0,1,.32-.18.56.56,0,0,1,.47.09A.53.53,0,0,1,23.84,14.35Z"/></g></g></svg>