<svg xmlns="http://www.w3.org/2000/svg" viewBox="0 0 71.65 71.65"><defs><style>.cls-1{fill:none;stroke:#000;stroke-linecap:round;stroke-linejoin:round;stroke-width:4px;}</style></defs><g id="Layer_2" data-name="Layer 2"><g id="OBJECTS"><rect class="cls-1" x="2" y="2" width="67.65" height="67.65" rx="12.61"/><path d="M35.73,15a21,21,0,0,0-6.61,41c1,.19,1.43-.46,1.43-1s0-1.83,0-3.58c-5.83,1.27-7.06-2.82-7.06-2.82a5.56,5.56,0,0,0-2.33-3.08c-1.9-1.31.14-1.28.14-1.28a4.39,4.39,0,0,1,3.21,2.17c1.87,3.21,4.91,2.29,6.1,1.75a4.53,4.53,0,0,1,1.33-2.82C27.26,44.84,22.37,43,22.37,35a8.16,8.16,0,0,1,2.16-5.65,7.56,7.56,0,0,1,.2-5.57s1.76-.56,5.76,2.16a19.77,19.77,0,0,1,10.5,0c4-2.72,5.75-2.15,5.75-2.15A7.51,7.51,0,0,1,47,29.33,8.13,8.13,0,0,1,49.11,35c0,8.08-4.9,9.86-9.57,10.38A5,5,0,0,1,41,49.26c0,2.81,0,5.08,0,5.77s.37,1.21,1.44,1a21.05,21.05,0,0,0-6.65-41Z"/></g></g></svg>