<svg xmlns="http://www.w3.org/2000/svg" width="268" height="69" viewBox="0 0 268 69">
  <g fill="#FF595A" fill-rule="evenodd">
    <path fill-rule="nonzero" d="M131.367751 39.1C130.998474 39.1004788 130.644156 38.9444664 130.382799 38.666308 130.121442 38.3881496 129.974474 38.0106492 129.974249 37.6169139L129.974249 2.63328936C129.974249 1.99553668 130.356898 1.4292858 130.924171 1.22707154 131.4913 1.02413103 132.116588 1.23106387 132.476277 1.74072538L146.706454 21.8509966 148.204278 19.8614923C148.435377 19.5548106 148.771288 19.3585954 149.138091 19.3160259 149.504894 19.2734563 149.872531 19.3880207 150.1601 19.6345079 150.755893 20.1469394 150.85176 21.0761803 150.374681 21.7144443L147.756457 25.1942681C147.490548 25.5528517 147.082511 25.7580002 146.653869 25.7486164 146.224862 25.7422887 145.822763 25.524584 145.56485 25.1589997L132.758709 7.06445803 132.758709 37.6169139C132.758709 38.4359991 132.135956 39.1 131.367751 39.1M162.000958 39.1C161.266687 39.1 160.671443 38.4411212 160.671443 37.628353L160.671443 8.10029422 155.361492 15.7411932C154.913554 16.3850528 154.079083 16.5055329 153.496929 16.0103969 152.915673 15.5143051 152.806876 14.5910303 153.253725 13.9465017L160.947074 2.87505001C161.2942 2.37564009 161.889806 2.17583633 162.428996 2.37792047 162.968055 2.58140911 163.330472 3.14196488 163.330472 3.77239574L163.330472 37.628353C163.330472 38.4411212 162.735228 39.1 162.000958 39.1M172.762894 20.7C172.406357 20.7004751 172.064273 20.5455888 171.812009 20.2694635 171.559745 19.9933382 171.417999 19.6186299 171.417999 19.2278917L171.381974 3.7756998C171.380728 3.38485761 171.521866 3.00963145 171.774073 2.73329358 172.026388 2.45508301 172.369776 2.29906054 172.727696 2.3L190.743397 2.3C191.484939 2.30049949 192.085837 2.95943931 192.085837 3.77211148 192.085837 4.5846384 191.484806 5.24332162 190.743397 5.24332162L174.072591 5.24332162 174.105334 19.220715C174.107511 19.6117523 173.967462 19.9876318 173.716154 20.2652341 173.464846 20.5428365 173.122986 20.6992904 172.766169 20.7L172.762894 20.7zM190.677605 25.2996481L175.161916 25.2996481C174.637731 25.3099567 174.147729 25.0931175 173.881829 24.733175 173.615928 24.3732324 173.615928 23.9267676 173.881829 23.566825 174.147729 23.2068825 174.637731 22.9900433 175.161916 23.0003519L190.677605 23.0003519C191.46091 23.0157563 192.085837 23.5259319 192.085837 24.15 192.085837 24.7740681 191.46091 25.2842437 190.677605 25.2996481M194.07658 40.25L173.005765 40.25C172.187892 40.2511047 171.520548 39.5963978 171.507092 38.7797041L171.381974 30.2658427C171.370456 29.4405557 172.03072 28.7619889 172.857084 28.75L172.878975 28.75C173.694389 28.7503509 174.359508 29.4024488 174.374912 30.2166506L174.477986 37.2583957 194.07658 37.2583957C194.888625 37.2784199 195.536481 37.9416006 195.536481 38.7528307 195.536481 39.5640608 194.888625 40.2272414 194.07658 40.2472657M211.265336 29.8981236C210.683558 29.8981236 210.086584 29.8709154 209.474415 29.8164992 208.73911 29.7506928 208.189315 29.0103518 208.246413 28.1629011 208.303511 27.3154504 208.94588 26.6818025 209.681185 26.7476088 213.646447 27.1022528 216.836729 26.1574737 218.907685 24.0117836 220.617201 22.2413782 221.528943 19.6791221 221.616046 16.3963195 221.616046 12.2963345 220.526027 9.19742133 218.388318 7.1849573 214.664016 3.6788603 208.680711 4.11043767 206.258898 4.46414347L206.258898 22.9469133C206.241003 23.7821542 205.648372 24.4485153 204.92344 24.4485153 204.198509 24.4485153 203.605877 23.7821542 203.587983 22.9469133L203.587983 3.14314144C203.589261 2.41010713 204.038792 1.77976293 204.662536 1.6363735 205.056538 1.54255233 214.380725-.567485708 220.083181 4.80096146 222.876204 7.42795413 224.291845 11.3384204 224.291845 16.4188365L224.291845 16.4657471C224.187646 20.5751142 222.945398 23.9770697 220.698606 26.3038347 218.411112 28.6728191 215.175243 29.9 211.269406 29.9M204.741697 39.1C204.437199 39.1002272 204.145098 38.9522977 203.929653 38.688754 203.714209 38.4252103 203.593069 38.0676406 203.592884 37.6947062L203.587983 31.3070083C203.587797 30.9340739 203.708581 30.5763235 203.923763 30.3124583 204.138945 30.048593 204.430898 29.9002273 204.735397 29.9L204.735397 29.9C205.369209 29.9 205.883124 30.5290327 205.883511 31.3052935L205.888412 37.6929914C205.888783 38.0656985 205.768251 38.4233212 205.553332 38.6871865 205.338412 38.9510518 205.046711 39.0995452 204.742398 39.1L204.741697 39.1zM224.001432 40.2446261C223.537939 40.2450721 223.102812 40.0162 222.833313 39.6302091L217.658588 32.2240658C217.360206 31.7972052 217.306965 31.2398267 217.51892 30.7618896 217.730876 30.2839524 218.175827 29.9580666 218.686164 29.9069901 219.196502 29.8559136 219.694694 30.0874062 219.993077 30.5142669L225.172177 37.9213058C225.486528 38.3692235 225.52963 38.9595214 225.283817 39.4502939 225.038005 39.9410664 224.544602 40.2498097 224.005807 40.25M102.369539 40.25C92.2212302 40.25 83.9656652 31.4798641 83.9656652 20.6995458 83.9656652 9.91922755 92.2203502 1.15 102.369539 1.15 103.166539 1.15 103.812635 1.81695999 103.812635 2.63969683 103.812635 3.46258074 103.166681 4.12980056 102.369539 4.13030201 93.8130354 4.13030201 86.8527371 11.5633442 86.8527371 20.6995458 86.8527371 29.8357475 93.8121555 37.2706063 102.369539 37.2706063 110.926922 37.2706063 117.88634 29.8366558 117.88634 20.6995458 117.886107 20.3042963 118.038044 19.9251527 118.308702 19.6455838 118.57936 19.366015 118.946551 19.2089406 119.329436 19.2089406 120.126436 19.2089406 120.772532 19.8759006 120.772532 20.6986375 120.772532 31.4789557 112.516967 40.2490916 102.368659 40.2490916M118.194287 14.9483382C117.611801 14.9483348 117.087888 14.6095 116.871008 14.0925223 115.360924 10.4939407 112.546676 7.63734336 108.946975 6.04951393 108.233078 5.73324023 107.922009 4.9237416 108.251885 4.24066794 108.582613 3.55797157 109.429108 3.26049849 110.1434 3.57595651 114.406912 5.45625898 117.736396 8.83133127 119.519304 13.0788373 119.812589 13.777492 119.458252 14.5712435 118.727769 14.8519551 118.558915 14.9165409 118.378753 14.9498141 118.196894 14.95"/>
    <path fill-rule="nonzero" d="M102.369539 40.25C92.2212302 40.25 83.9656652 31.4798641 83.9656652 20.6995458 83.9656652 9.91922755 92.2203502 1.15 102.369539 1.15 103.166539 1.15 103.812635 1.81695999 103.812635 2.63969683 103.812635 3.46258074 103.166681 4.12980056 102.369539 4.13030201 93.8130354 4.13030201 86.8527371 11.5633442 86.8527371 20.6995458 86.8527371 29.8357475 93.8121555 37.2706063 102.369539 37.2706063 110.926922 37.2706063 117.88634 29.8366558 117.88634 20.6995458 117.886107 20.3042963 118.038044 19.9251527 118.308702 19.6455838 118.57936 19.366015 118.946551 19.2089406 119.329436 19.2089406 120.126436 19.2089406 120.772532 19.8759006 120.772532 20.6986375 120.772532 31.4789557 112.516967 40.2490916 102.368659 40.2490916M73.1944365 5.01360417C73.0409642 4.8974156 72.8840623 4.78389803 72.7254457 4.67238371L72.5848341 4.57689541C72.471659 4.49876861 72.3576265 4.42064181 72.2418792 4.34451827 72.1895786 4.310463 72.1355632 4.27774323 72.0824052 4.24435571 71.96923 4.17223867 71.8560549 4.10078937 71.7394502 4.03067558 71.6871496 3.99929131 71.6339916 3.9685748 71.5808336 3.93785828 71.4625141 3.86707674 71.3430515 3.79785328 71.2224457 3.7301879L71.0749751 3.64939011C70.9475102 3.57905373 70.8186163 3.51027544 70.6882934 3.44305523L70.5588279 3.37628019C70.4193596 3.30549865 70.2787481 3.23627519 70.1369933 3.16860982L70.0332495 3.11919629C69.8789198 3.04707925 69.7231611 2.97674287 69.5659734 2.90818717L69.496525 2.8781384C69.3250476 2.8026826 69.1475684 2.73056556 68.9709466 2.65978402L68.9495119 2.65177101C66.4501453 1.66402604 63.6868024 1.14949666 60.8840694 1.15L60.8780677 1.15C60.6711516 1.15 60.4642354 1.15244879 60.2573193 1.15734562L60.2127352 1.15734562C60.0201088 1.16268763 59.8271967 1.17047805 59.6339987 1.18071689L59.5525469 1.18472339C59.3724956 1.19473965 59.1933016 1.2074269 59.0132503 1.22144966L58.8966456 1.23013042C58.7303125 1.24482093 58.5639793 1.26106952 58.3976462 1.2788762 58.3470603 1.2842182 58.2964745 1.2882247 58.246746 1.29423446 58.0924163 1.31159597 57.938944 1.33162848 57.7854717 1.35166099 57.7237398 1.35967399 57.6628653 1.36701925 57.6019908 1.3757 57.4605219 1.39506477 57.3199103 1.41776828 57.1784414 1.44247504 57.1064209 1.4538268 57.0352578 1.46384306 56.9632372 1.47586256 56.7763268 1.50791458 56.5899879 1.54219244 56.4042207 1.57869612 56.2653239 1.60540614 56.1264272 1.63545491 55.9883878 1.66483593 55.9026491 1.68353294 55.8169104 1.7002267 55.7311716 1.71892371 55.6197113 1.74429822 55.5091083 1.77234374 55.3985054 1.79905376 55.3127666 1.81908627 55.2313148 1.83778328 55.1472909 1.85915129L55.127571 1.86449329C54.6748705 1.98001411 54.2238847 2.10888994 53.7771859 2.25379178 53.060134 2.4856507 52.7200693 3.12625084 53.0175408 3.68478088 53.3152738 4.24358257 54.1381566 4.50872175 54.8557792 4.27707548 55.3084797 4.13083814 55.7663245 4.00396557 56.2275989 3.8917835 56.3219115 3.86907999 56.4170815 3.84570872 56.5113941 3.82500846 56.5774129 3.8096502 56.6442891 3.79629519 56.710308 3.78227244 56.8200535 3.75890117 56.9289417 3.73486216 57.0386873 3.7154974L57.0386873 3.7154974C57.2856149 3.66675162 57.5325424 3.62468334 57.7794699 3.58595382 57.8797843 3.56992781 57.980956 3.5539018 58.0812703 3.53921129L58.273325 3.51450453C58.3899297 3.49914627 58.5073918 3.48378801 58.6239965 3.470433L58.7834705 3.45373924C58.912936 3.44038423 59.0406867 3.42702922 59.1718669 3.41634522 59.2138789 3.41233872 59.2576057 3.40966771 59.2996177 3.40632896 59.4410866 3.39564496 59.5816981 3.38496095 59.7223096 3.37694794L59.8217665 3.37227369C59.9735241 3.36426069 60.1252816 3.35758318 60.2770392 3.35357668 60.3001887 3.35357668 60.3233381 3.35357668 60.3464876 3.35357668 60.5093912 3.34957018 60.6722948 3.34689918 60.8351983 3.34689918L60.8737808 3.34689918C61.0452582 3.34689918 61.2244522 3.34689918 61.3985018 3.35424443L61.3985018 3.35424443C63.5737537 3.41302538 65.7066571 3.83907757 67.6497127 4.60293767L67.6831508 4.61629268C67.8271919 4.67305146 67.9686608 4.73248125 68.1118445 4.79257879L68.183865 4.82396305C68.31133 4.87916375 68.4382233 4.93659029 68.564545 4.99624266 68.5971257 5.01160092 68.6305638 5.02629143 68.6622872 5.04231743 68.7788918 5.09707297 68.8937817 5.15383175 69.0052421 5.21192604L69.1218468 5.27135582C69.229306 5.32700169 69.335622 5.38353789 69.4407948 5.44096442L69.5702603 5.51174596C69.6705746 5.567837 69.7691742 5.62526353 69.8677737 5.68335782L70.0049557 5.76415561C70.1009831 5.8222499 70.1944383 5.88167968 70.2887509 5.94177722 70.3341924 5.97049049 70.3804913 5.998536 70.4259329 6.02858477 70.5228176 6.09135331 70.6179876 6.15679285 70.7131576 6.22223239 70.7534548 6.24961015 70.793752 6.27565242 70.8331918 6.30369793 70.9669443 6.39718299 71.0984103 6.49289388 71.22759 6.59083061 71.4900171 6.78943991 71.841661 6.90037657 72.2075837 6.9 72.5881958 6.9 72.9524405 6.77943717 73.2167286 6.56612384 73.7575723 6.13182765 73.744139 5.43833514 73.18672 5.01694292M74.3160282 30.962745C73.7246653 30.3911396 72.7803657 30.405337 72.2065737 30.9944604 69.1151318 34.1659963 65.0089696 35.9909887 60.6454903 36.123287 56.2974682 36.2528669 52.2158557 34.6942836 49.1489635 31.7275383 48.9889359 31.5725861 48.8334545 31.4140093 48.6816102 31.2536202L48.5734097 31.1394449C48.2648717 30.8065847 47.9733063 30.4637567 47.6987135 30.1109611L47.6450679 30.0429996C43.3461452 24.4502226 43.2806794 16.391803 47.7441759 10.4311278 47.9818925 10.1149337 48.0835694 9.71745612 48.0267627 9.32643331 47.9699561 8.93541049 47.7593368 8.58299413 47.4413964 8.34697564 47.1241225 8.11006812 46.7252876 8.00873727 46.3329294 8.06535057 45.9405713 8.12196388 45.5869514 8.33186632 45.3501269 8.64872463 43.5916635 10.990862 42.3801643 13.6947651 41.8040612 16.5630659 41.7876533 16.6154829 41.7739961 16.668716 41.7631451 16.7225489 40.7120549 22.1540306 42.0231899 27.6380693 45.2864796 31.8643674L45.3401252 31.933235C45.6680605 32.3561065 46.0163024 32.7647815 46.3848507 33.1592602L46.5112361 33.294277C46.6930857 33.4854753 46.8749352 33.6739552 47.0667864 33.8579042 50.5764822 37.2514476 55.1936416 39.1 60.1290376 39.1 60.3290721 39.1 60.5309251 39.1 60.7318688 39.0909385 65.8745733 38.9350801 70.7081336 36.7929342 74.3433056 33.0613957 74.9163587 32.4718462 74.902119 31.531174 74.3114819 30.9591204M17.8422172 12.3016655C18.1439335 13.0479032 19.0052399 13.4133937 19.7666599 13.1182919 20.5277932 12.8224803 20.9005793 11.97803 20.599587 11.2315113L16.901318 2.0689272C16.677508 1.51416042 16.1306746 1.15 15.5221794 1.15L15.5221794 1.15C14.9136708 1.15096501 14.3675528 1.51638382 14.1448555 2.07159592L.103047122 37.1144769C-.196251387 37.8617327.178583477 38.705428.940510882 38.9994784 1.1140183 39.0658972 1.29864404 39.1 1.48490769 39.1 2.09463584 39.1 2.64218267 38.7339821 2.86495361 38.1775146L15.5276234 6.56926825 17.8422172 12.3016655zM29.8043583 37.1541656L27.2042123 30.603539C27.1717604 30.3968247 27.0936418 30.1997592 26.9754347 30.0264143L22.2652548 18.1535125C22.1259485 17.80185 21.8512782 17.5194651 21.5017296 17.3685423 21.152181 17.2176196 20.7564196 17.2105357 20.4015969 17.3488507 19.6626903 17.6370233 19.2991807 18.463854 19.5894362 19.1961728L23.64496 29.4065719 12.9364061 29.4065719C12.1435158 29.4080149 11.5016593 30.0455055 11.5021459 30.831076 11.5021459 31.6178079 12.145862 32.2555801 12.9399257 32.2555801L24.7765295 32.2555801 27.1346991 38.1968259C27.3505 38.7418502 27.8812506 39.1002586 28.4721685 39.1 28.6528896 39.1 28.8319965 39.0663035 29.0001169 39.0006159 29.7361613 38.7100783 30.0959387 37.8840689 29.8043583 37.1541656M181.733906 54.6675168C181.494116 54.3422952 181.218628 54.0516272 180.913852 53.8022769 180.599167 53.5441081 180.262888 53.3200497 179.909636 53.1331825 179.554896 52.9443608 179.18312 52.7978077 178.80054 52.6959797 178.429231 52.5964123 178.048661 52.5456525 177.666669 52.544746 176.930272 52.5388818 176.201357 52.708934 175.529408 53.0433588 174.205429 53.7034612 173.154829 54.8940399 172.587785 56.3769156 172.299087 57.1207779 172.151231 57.9225612 172.153396 58.7324947 172.150994 59.5074988 172.296211 60.274315 172.579526 60.9826684 172.864362 61.6986046 173.270941 62.3468475 173.776987 62.891879 174.306316 63.4386022 174.911388 63.8873341 175.569048 64.2209022 176.224811 64.5655884 176.941084 64.7452387 177.666669 64.747012 178.03796 64.744669 178.407717 64.6939097 178.768333 64.5957784 179.151313 64.4934884 179.52526 64.3533037 179.885687 64.1769069 180.246328 64.0005164 180.590668 63.7856404 180.913852 63.5353095 181.221595 63.3002509 181.497703 63.0178787 181.733906 62.69665L181.733906 63.8744396C181.170528 64.3995633 180.532958 64.8179412 179.846873 65.1127225 179.161812 65.4051402 178.433675 65.5534021 177.699702 65.55 176.871073 65.5542663 176.050508 65.3692522 175.28909 65.0064007 174.542538 64.6548016 173.861041 64.1529362 173.279008 63.5261438 172.697615 62.8980482 172.22855 62.1535325 171.896561 61.3318807 171.554 60.4956013 171.378488 59.5869741 171.381974 58.6683349 171.377415 57.7407906 171.549952 56.8226853 171.888303 55.9745424 172.214349 55.1498468 172.680973 54.4028875 173.262492 53.7747799 173.846498 53.1465791 174.530621 52.644325 175.280006 52.2936065 176.050046 51.9304825 176.87874 51.7455364 177.715393 51.75 178.452933 51.750754 179.183703 51.9062483 179.869171 52.2083657 180.558059 52.506441 181.190544 52.9450976 181.733906 53.5016427L181.733906 54.6675168z"/>
    <polygon fill-rule="nonzero" points="189.555 63.645 193.236 63.645 193.236 64.4 188.635 64.4 188.635 51.75 189.555 51.75"/>
    <path fill-rule="nonzero" d="M205.133836 51.75L205.888412 51.75 205.888412 59.5325924C205.888412 59.8524366 205.882757 60.1612224 205.873062 60.4598004 205.863194 60.7513706 205.834039 61.0418623 205.785809 61.3291642 205.738723 61.6111105 205.659797 61.8861199 205.550711 62.1483397 205.428962 62.4331096 205.272826 62.7001496 205.08617 62.9428463 204.690682 63.427303 204.188667 63.8025662 203.623877 64.0359309 202.494989 64.5213564 201.230333 64.5213564 200.101445 64.0359309 199.536655 63.8025662 199.03464 63.427303 198.639152 62.9428463 198.452452 62.7003456 198.296562 62.4332612 198.175419 62.1483397 198.065718 61.8862888 197.986508 61.6112348 197.939513 61.3291642 197.891156 61.041901 197.862269 60.7513799 197.853068 60.4598004 197.841757 60.1612224 197.83691 59.8524366 197.83691 59.5325924L197.83691 51.75 198.591486 51.75 198.591486 59.3003651C198.591486 59.5878846 198.594179 59.8714345 198.599565 60.1510146 198.604767 60.4283245 198.628524 60.7049037 198.67066 60.9786966 198.710057 61.2426089 198.770044 61.5026536 198.850013 61.7561902 198.928715 62.0049695 199.048206 62.2373066 199.203064 62.4426644 199.35416 62.6452789 199.534652 62.8215427 199.737892 62.9649632 199.948647 63.1142253 200.17268 63.2415705 200.40683 63.3452035 200.640609 63.4497855 200.884375 63.5276407 201.133938 63.5774308 201.611428 63.6761082 202.102583 63.6761082 202.580074 63.5774308 202.831277 63.5279504 203.076681 63.4500912 203.312028 63.3452035 203.54592 63.2415646 203.769684 63.1142183 203.980159 62.9649632 204.183398 62.8215427 204.36389 62.6452789 204.514987 62.4426644 204.6698 62.2371383 204.789532 62.0048616 204.868846 61.7561902 204.948383 61.5021755 205.008626 61.2419085 205.049007 60.9778459 205.091142 60.704053 205.114899 60.4274739 205.120102 60.150164 205.124949 59.868599 205.128181 59.584482 205.128181 59.2995144L205.133836 51.75zM212.7897 64.3997324L212.7897 51.7500197 215.165517 51.7500197C215.598913 51.7489885 216.031559 51.7884989 216.458479 51.8681166 216.890926 51.955064 217.291682 52.1701188 217.614872 52.4886642 217.967217 52.8013808 218.233616 53.2099961 218.3858 53.6711523 218.533594 54.1327722 218.607888 54.6175229 218.605604 55.105307 218.618281 55.6303966 218.50478 56.1502134 218.275898 56.6153064 218.055018 57.0404965 217.708881 57.3984606 217.237488 57.6891987 217.589584 57.7613558 217.927437 57.8975013 218.236302 58.0916928 218.52967 58.2768777 218.790546 58.5151564 219.00723 58.795842 219.223895 59.0793773 219.394105 59.3999047 219.510677 59.743901 219.632685 60.1071715 219.693687 60.4905389 219.690884 60.8764005 219.694546 61.3724885 219.60096 61.8639175 219.416129 62.3191739 219.228161 62.7726288 218.945706 63.1743921 218.59025 63.4939052 218.21898 63.8466591 217.774004 64.0996134 217.292439 64.2316674 216.80991 64.3480026 216.31638 64.4043993 215.821695 64.3997324L212.7897 64.3997324zM213.545274 57.4875207L214.850358 57.4875207C215.249021 57.4875207 215.618862 57.4734434 215.959881 57.4452889 216.328977 57.4052181 216.680236 57.2559625 216.974047 57.014353 217.278801 56.7970334 217.51906 56.4914516 217.66659 56.1335201 217.798233 55.7670955 217.86217 55.3769703 217.854878 54.984645 217.85621 54.577043 217.775753 54.1738552 217.618912 53.8021569 217.463658 53.4296704 217.205752 53.1164251 216.8795 52.9040865 216.582714 52.7054553 216.245903 52.5849267 215.896849 52.5524428 215.545594 52.5185425 215.195417 52.5015923 214.846317 52.5015923L213.541234 52.5015923 213.545274 57.4875207zM213.545274 63.6447327L215.353805 63.6447327C215.773479 63.6447327 216.190459 63.6277826 216.604745 63.5938823 217.024007 63.5584766 217.427604 63.4082635 217.776492 63.1577752 218.131146 62.9148932 218.425339 62.5839734 218.633887 62.1933406 218.839612 61.8015617 218.945227 61.3590166 218.940158 60.9100135 218.941635 60.4469871 218.833512 59.9910531 218.625806 59.5844547 218.421712 59.1769138 218.102511 58.8482341 217.71346 58.6450145 217.328141 58.449968 216.912167 58.3330635 216.486762 58.3002658 216.035842 58.2617688 215.61105 58.2422331 215.212387 58.2416585L213.545274 58.2416585 213.545274 63.6447327zM263.809436 69C261.50052 68.9950826 259.630605 67.0372357 259.628258 64.6222052L259.628258 45.6115977C259.1805 45.3900902 258.756577 45.1193198 258.363665 44.80387 257.273146 43.9292036 255.905303 42.2869727 255.583608 39.429134 255.242288 36.4142123 255.340418 31.9471658 255.451347 26.775031 255.511931 23.9537855 255.574222 21.0370406 255.574222 18.049787 255.574222 8.87471445 265.290767 1.72208495 265.704619 1.42219932 266.151829 1.0984651 266.733742 1.06066035 267.215816 1.32402247 267.697904 1.58824632 268 2.11047921 268 2.67975546L268 23.2076415C268 24.0525122 267.34519 24.7374152 266.537441 24.7374152 265.729692 24.7374152 265.074882 24.0525122 265.074882 23.2076415L265.074882 5.89727846C262.44586 8.3882928 258.498487 12.9731515 258.498487 18.0462169 258.498487 21.0673862 258.436196 24.0019814 258.374758 26.8401848 258.267242 31.8971848 258.173379 36.265162 258.4891 39.0676647 258.854314 42.3199958 261.152255 42.9893834 261.413365 43.0545371 262.08361 43.2054676 262.559771 43.8288625 262.552523 44.5459327L262.552523 64.6222052C262.552523 65.350746 263.117172 65.941345 263.813702 65.941345 264.510233 65.941345 265.074882 65.350746 265.074882 64.6222052L265.074882 34.8755133C265.074882 34.0306426 265.729692 33.3457396 266.537441 33.3457396 267.34519 33.3457396 268 34.0306426 268 34.8755133L268 64.6222052C267.997175 67.0408605 266.121823 69 263.809436 69z"/>
    <path fill-rule="nonzero" d="M266.274678 31.05C265.322202 31.05 264.549912 30.4168327 264.549356 29.6354833L264.549356 29.0153422C264.549356 28.2336703 265.321809 27.6 266.274678 27.6 267.227547 27.6 268 28.2336703 268 29.0153422L268 29.6354833C268 30.0107795 267.818193 30.3706925 267.494604 30.6359896 267.171014 30.9012866 266.732169 31.0502188 266.274678 31.05zM249.021459 16.1C248.563875 16.1 248.125033 15.9308984 247.801472 15.6298956 247.477912 15.3288928 247.296137 14.9206453 247.296137 14.4949631L247.296137 1.60410075C247.296137 1.17850456 247.477944.770353348 247.801533.469499221 248.125123.168645093 248.563968-.00024817706 249.021459 0 249.973935 0 250.746225.718029066 250.746781 1.60410075L250.746781 14.4949631C250.746781 15.3814005 249.974328 16.1 249.021459 16.1L249.021459 16.1zM240.868481 67.85C238.702331 67.8470803 236.94702 66.0260747 236.944206 63.7788525L236.944206 42.5230284C236.944206 41.6868788 237.597585 41.0090456 238.40357 41.0090456 239.209554 41.0090456 239.862934 41.6868788 239.862934 42.5230284L239.862934 63.7788525C239.862934 64.1515455 240.05459 64.4959281 240.365707 64.6822746 240.676825 64.8686212 241.060138 64.8686212 241.371255 64.6822746 241.682373 64.4959281 241.874029 64.1515455 241.874029 63.7788525L241.874029 24.8966999C241.874499 24.0607522 242.527603 23.3832044 243.333393 23.3827171 245.179369 23.3807704 246.675493 21.8290474 246.677839 19.9139828 246.677839 19.5124496 246.831593 19.1273622 247.105277 18.8434353 247.378961 18.5595084 247.750155 18.4 248.137203 18.4 248.52425 18.4 248.895445 18.5595084 249.169129 18.8434353 249.442813 19.1273622 249.596567 19.5124496 249.596567 19.9139828 249.592642 22.9177841 247.607629 25.5285982 244.792756 26.2322553L244.792756 63.7788525C244.79041 66.0262762 243.034826 67.8475659 240.868481 67.85zM236.745947 34.5C236.001386 34.4995203 235.397908 33.8324604 235.397474 33.0094525L235.397474 25.1914701C232.928287 24.5037291 231.196604 22.0508887 231.193133 19.2362371L231.193133 1.49054749C231.193133.667340842 231.796865 0 232.541606 0 232.899171 0 233.24208.157067055 233.494843.436623959 233.747606.716180863 233.889501 1.0953097 233.889293 1.49054749L233.889293 19.2362371C233.891028 20.9792122 235.169107 22.3915597 236.745947 22.3929976 237.490689 22.3929976 238.094421 23.0603384 238.094421 23.8835451L238.094421 33.0094525C238.094421 33.8326592 237.490689 34.5 236.745947 34.5z"/>
    <path fill-rule="nonzero" d="M238.669528 19.55C237.716659 19.55 236.944206 18.8535118 236.944206 17.99435L236.944206 1.55564995C236.944206.696488208 237.716659 0 238.669528 0 239.622397 0 240.39485.696488208 240.39485 1.55564995L240.39485 17.99435C240.39485 18.8535118 239.622397 19.55 238.669528 19.55L238.669528 19.55zM244.41909 19.55C243.46673 19.5489972 242.695279 18.8528024 242.695279 17.9943491L242.695279 1.55564987C242.695279.69648817 243.467957 0 244.421104 0 244.878729 0 245.317596.163927245 245.641091.455694307 245.964586.747461369 246.14619 1.14314935 246.145923 1.55564987L246.145923 17.9943491C246.14619 18.4071643 245.96431 18.8031277 245.640379 19.0949471 245.316449 19.3867665 244.877064 19.550481 244.41909 19.55z"/>
  </g>
</svg>
