<svg xmlns="http://www.w3.org/2000/svg" viewBox="0 0 33.67 39.88"><defs><style>.cls-1{fill:#eaeaea;}</style></defs><g id="Layer_2" data-name="Layer 2"><g id="Version_11" data-name="Version 11"><g id="Axity"><path class="cls-1" d="M14.28,12.43c-.45-.06-.74-.3-.72-.75a.74.74,0,1,1,.72.75Z"/><path class="cls-1" d="M19.67,9a.74.74,0,0,1-.74.73.73.73,0,1,1,0-1.45A.72.72,0,0,1,19.67,9Z"/><path class="cls-1" d="M9.94,9.49a1,1,0,0,1-1,0l-.29-.54c.09-.47.32-.82.85-.78s.71.42.73.9Z"/><path class="cls-1" d="M21.22,11.68a.7.7,0,0,1-.71.74.73.73,0,1,1,0-1.45A.7.7,0,0,1,21.22,11.68Z"/><path class="cls-1" d="M10.24,14.39c0,.47-.19.85-.73.9s-.72-.34-.85-.77L9,14a1,1,0,0,1,1,0Z"/><path class="cls-1" d="M10.52,17.69c-.32-.3-.52-.64-.26-1.05s.69-.43,1.12-.24l.3.43a1,1,0,0,1-.62,1Z"/><path class="cls-1" d="M19,13.63a.69.69,0,0,1,.67.76.68.68,0,0,1-.75.69.69.69,0,0,1-.73-.79A.71.71,0,0,1,19,13.63Z"/><path class="cls-1" d="M11.1,5.7a.93.93,0,0,1,.58.91l-.31.44c-.43.19-.84.2-1.11-.24s-.06-.76.26-1Z"/><path class="cls-1" d="M23.33,16.43c.45-.2.89-.28,1.18.22s0,.84-.39,1.13l-.45,0a.92.92,0,0,1-.54-.67A1.38,1.38,0,0,1,23.33,16.43Z"/><path class="cls-1" d="M23.15,6.21a1.09,1.09,0,0,1,.52-.52l.45,0c.37.29.7.62.39,1.13s-.73.42-1.18.22A1.27,1.27,0,0,1,23.15,6.21Z"/><path class="cls-1" d="M16.61,9a.71.71,0,0,1-.71.76A.69.69,0,0,1,15.12,9a.67.67,0,0,1,.74-.7A.7.7,0,0,1,16.61,9Z"/><path class="cls-1" d="M15.76,13.63c.54,0,.82.24.83.69a.67.67,0,0,1-.75.76.68.68,0,0,1-.72-.72A.69.69,0,0,1,15.76,13.63Z"/><path class="cls-1" d="M6.61,13.48a1.92,1.92,0,0,1-.39.17.69.69,0,0,1-.9-.5.66.66,0,0,1,.39-.83.69.69,0,0,1,1,.34,1.39,1.39,0,0,1,.12.41Z"/><path class="cls-1" d="M6.79,10.37a2.07,2.07,0,0,1-.19.53.68.68,0,0,1-.89.23.67.67,0,0,1-.39-.82.66.66,0,0,1,.75-.53A2.25,2.25,0,0,1,6.6,10Z"/><path class="cls-1" d="M19.25,20.51c-.45.12-.88.14-1.1-.37s.06-.77.42-1l.55,0a1,1,0,0,1,.47,1C19.48,20.24,19.36,20.37,19.25,20.51Z"/><path class="cls-1" d="M25.78,9.49a1,1,0,0,1-1,0,1.21,1.21,0,0,1-.19-.79.75.75,0,0,1,.85-.5.78.78,0,0,1,.65.76Z"/><path class="cls-1" d="M10.38,3.46C10,3.2,9.73,2.87,10,2.39A.68.68,0,0,1,10.75,2a.66.66,0,0,1,.55.49c.15.42-.13.66-.39.9Z"/><path class="cls-1" d="M15.69,4.33a1.18,1.18,0,0,1-.49-.61,1,1,0,0,1,.36-.8c.42-.09.82-.1,1,.35s0,.76-.36,1Z"/><path class="cls-1" d="M19.59,3.33a1,1,0,0,1-.46,1l-.58,0c-.33-.26-.59-.57-.41-1s.6-.49,1-.42Z"/><path class="cls-1" d="M10.92,20c.27.24.52.49.37.9a.65.65,0,0,1-.55.48.69.69,0,0,1-.78-.37c-.22-.48,0-.8.42-1.05Z"/><path class="cls-1" d="M16.25,19.14c.32.27.6.57.37,1s-.64.43-1.06.35a1.2,1.2,0,0,1-.38-.67,1,1,0,0,1,.51-.74Z"/><path class="cls-1" d="M24.77,14a1,1,0,0,1,1,0c.11.19.21.38.31.57-.06.42-.26.73-.71.76a.73.73,0,0,1-.82-.64A1.51,1.51,0,0,1,24.77,14Z"/><path class="cls-1" d="M28,12.83c.19-.5.53-.74,1-.49a.62.62,0,0,1,.34.89c-.27.56-.72.51-1.2.28A1.19,1.19,0,0,1,28,12.83Z"/><path class="cls-1" d="M13.21,2.12c-.49.14-.94.11-1.1-.46a.64.64,0,0,1,.52-.87c.61-.11.87.25.92.81A1.08,1.08,0,0,1,13.21,2.12Z"/><path class="cls-1" d="M28,10.52l0-.14c.08-.15.16-.3.23-.45a.9.9,0,0,1,.88-.07.68.68,0,0,1,.39.7.69.69,0,0,1-.59.63.73.73,0,0,1-.86-.56A.08.08,0,0,0,28,10.52Z"/><path class="cls-1" d="M24.43,20c.28.2.53.43.45.82a.72.72,0,0,1-1.31.28.74.74,0,0,1,.19-1A1.19,1.19,0,0,1,24.43,20Z"/><path class="cls-1" d="M23.76,3.35a.74.74,0,0,1-.19-1,.73.73,0,0,1,1.32.27c.07.39-.18.62-.46.83A1.19,1.19,0,0,1,23.76,3.35Z"/><path class="cls-1" d="M13.55,21.71a2,2,0,0,1-.07.49.68.68,0,0,1-.84.46.71.71,0,0,1,0-1.39,2,2,0,0,1,.42,0Z"/><path class="cls-1" d="M21.61,21.3c.8-.07,1.25.3,1.06.87a.69.69,0,0,1-.7.51c-.45,0-.67-.29-.74-.72A1.12,1.12,0,0,1,21.61,21.3Z"/><path class="cls-1" d="M21.23,1.48c.11-.52.4-.83.95-.68a.64.64,0,0,1,.5.82c-.14.55-.57.64-1.07.52A1.06,1.06,0,0,1,21.23,1.48Z"/><path class="cls-1" d="M28,12.83a1.19,1.19,0,0,0,.19.68l-2.13,1c-.1-.19-.2-.38-.31-.57A9.49,9.49,0,0,0,28,12.83Z"/><path class="cls-1" d="M21.23,1.48a1.06,1.06,0,0,0,.38.66,13.21,13.21,0,0,1-2,1.19l-.42-.43A7.89,7.89,0,0,0,21.23,1.48Z"/><path class="cls-1" d="M13.21,2.12a1.08,1.08,0,0,0,.34-.52l2,1.32a1,1,0,0,0-.36.8c-.19-.53-.72-.69-1.13-1S13.49,2.32,13.21,2.12Z"/><path class="cls-1" d="M13.55,21.71l-.44-.42a7.81,7.81,0,0,0,2.07-1.43,1.2,1.2,0,0,0,.38.67A13.92,13.92,0,0,1,13.55,21.71Z"/><path class="cls-1" d="M27.2,17.91c-.41,0-.68-.27-.66-.68a.59.59,0,0,1,.66-.6.59.59,0,0,1,.65.66C27.84,17.68,27.58,17.87,27.2,17.91Z"/><path class="cls-1" d="M18.6,17.78c-.28-.23-.56-.46-.4-.88a.62.62,0,0,1,.6-.43.6.6,0,0,1,.62.38.7.7,0,0,1-.33.9Z"/><path class="cls-1" d="M27.86,6.17a.63.63,0,0,1-.6.65.61.61,0,0,1-.72-.61.6.6,0,0,1,.59-.66A.64.64,0,0,1,27.86,6.17Z"/><path class="cls-1" d="M17.39,23.44c-.42,0-.66-.25-.66-.63a.65.65,0,1,1,1.3.05A.61.61,0,0,1,17.39,23.44Z"/><path class="cls-1" d="M16.27,5.74a.7.7,0,0,1,.27.88A.61.61,0,0,1,16,7a.6.6,0,0,1-.62-.39c-.18-.43.08-.67.37-.9Z"/><path class="cls-1" d="M21.61,21.3a1.12,1.12,0,0,0-.38.66,14.17,14.17,0,0,0-2-1.45c.11-.14.23-.27.34-.4A14.08,14.08,0,0,1,21.61,21.3Z"/><path class="cls-1" d="M7.55,5.53c.37,0,.64.21.67.61a.58.58,0,0,1-.58.67.59.59,0,0,1-.72-.61C6.9,5.79,7.17,5.6,7.55,5.53Z"/><path class="cls-1" d="M19.15,5.73a.7.7,0,0,1,.27.88.67.67,0,0,1-1.2,0c-.18-.43.08-.67.37-.9Z"/><path class="cls-1" d="M7.57,16.61c.38.05.64.22.65.62a.6.6,0,0,1-.65.67.59.59,0,0,1-.65-.61C6.91,16.86,7.17,16.66,7.57,16.61Z"/><path class="cls-1" d="M17.38,0c.43.05.66.26.66.65a.6.6,0,0,1-.69.64.61.61,0,0,1-.63-.64A.64.64,0,0,1,17.38,0Z"/><path class="cls-1" d="M28.21,9.93c-.07.15-.15.3-.23.45a19.85,19.85,0,0,1-2.2-.89l.31-.57A16.46,16.46,0,0,1,28.21,9.93Z"/><path class="cls-1" d="M15.71,17.77c-.29-.23-.56-.48-.37-.9a.66.66,0,0,1,1.2,0,.7.7,0,0,1-.27.88Z"/><path class="cls-1" d="M23.29,13.77c-.79.13-1.24-.2-1-.77a.65.65,0,0,1,.66-.46c.47,0,.53.4.66.73C23.47,13.43,23.38,13.6,23.29,13.77Z"/><path class="cls-1" d="M22.12,7.74c-.15.15,0,.42-.24.56a.65.65,0,0,1-.72.09.64.64,0,0,1-.39-.62.62.62,0,0,1,.45-.57,1,1,0,0,1,.63,0Z"/><path class="cls-1" d="M21.84,16.2c-.74.12-1.18-.17-1.05-.69A.64.64,0,0,1,21.4,15c.5,0,.61.34.71.71Z"/><path class="cls-1" d="M23.59,10.09a1.83,1.83,0,0,0-.11.33.57.57,0,0,1-.74.46.64.64,0,0,1,.13-1.27,3.2,3.2,0,0,1,.41.07Z"/><path class="cls-1" d="M11.19,13.35c.06-.55.31-.92.92-.75a.59.59,0,0,1,.41.79c-.16.5-.57.49-1,.39Z"/><path class="cls-1" d="M6.79,10.37,6.6,10a7.53,7.53,0,0,1,2.06-1L9,9.47A15.14,15.14,0,0,1,6.79,10.37Z"/><path class="cls-1" d="M10.38,3.46l.53,0A8.34,8.34,0,0,1,11.1,5.7l-.58.06C10.55,5,10.28,4.23,10.38,3.46Z"/><path class="cls-1" d="M6.61,13.48l.18-.41A17.91,17.91,0,0,1,9,14l-.29.54A7.76,7.76,0,0,1,6.61,13.48Z"/><path class="cls-1" d="M12.64,15.67c.1-.48.35-.8.89-.64a.59.59,0,0,1,.43.78c-.16.5-.56.52-1,.41A1.15,1.15,0,0,1,12.64,15.67Z"/><path class="cls-1" d="M23.76,3.35a1.19,1.19,0,0,0,.67.08c0,.53-.07,1.07-.11,1.6,0,.23.05.48-.2.64l-.45,0C23.53,4.9,23.86,4.13,23.76,3.35Z"/><path class="cls-1" d="M13,7.22a2.1,2.1,0,0,1,.56,0,.57.57,0,0,1,.45.56.61.61,0,0,1-.43.65.6.6,0,0,1-.71-.18,1,1,0,0,1-.21-.59C12.74,7.51,12.86,7.37,13,7.22Z"/><path class="cls-1" d="M24.43,20a1.19,1.19,0,0,0-.67.08c.1-.79-.23-1.55-.09-2.34l.45,0c.3.2.18.51.2.77C24.37,19,24.4,19.53,24.43,20Z"/><path class="cls-1" d="M11.53,9.66c.46-.1.88-.08,1,.48a.59.59,0,0,1-.5.74c-.5.09-.74-.21-.83-.67A1.25,1.25,0,0,1,11.53,9.66Z"/><path class="cls-1" d="M10.92,20l-.54,0c-.1-.78.17-1.54.14-2.31l.54.1A6.56,6.56,0,0,1,10.92,20Z"/><path class="cls-1" d="M22.12,7.74l-.27-.5c.39-.4,1.08-.42,1.3-1a1.27,1.27,0,0,0,.18.81A3.22,3.22,0,0,1,22.12,7.74Z"/><path class="cls-1" d="M23.59,10.09l-.31-.41c.4-.39,1.08-.42,1.31-1a1.21,1.21,0,0,0,.19.79A2.09,2.09,0,0,1,23.59,10.09Z"/><path class="cls-1" d="M23.29,13.77c.09-.17.18-.34.28-.5a3.09,3.09,0,0,1,1.2.72,1.51,1.51,0,0,0-.21.66C24.25,14.2,23.67,14.13,23.29,13.77Z"/><path class="cls-1" d="M21.84,16.2l.27-.5a3.23,3.23,0,0,1,1.22.73,1.38,1.38,0,0,0-.2.66C22.81,16.63,22.22,16.56,21.84,16.2Z"/><path class="cls-1" d="M11.53,9.66a1.25,1.25,0,0,0-.33.55L9.94,9.49l.3-.44Z"/><path class="cls-1" d="M12.64,15.67a1.15,1.15,0,0,0,.33.55,6.33,6.33,0,0,1-1.29.61l-.3-.43Z"/><path class="cls-1" d="M13,7.22c-.11.15-.23.29-.34.43a3,3,0,0,1-1.26-.6l.31-.44A7.61,7.61,0,0,1,13,7.22Z"/><path class="cls-1" d="M11.19,13.35l.33.43a6,6,0,0,1-1.28.61L9.93,14A3,3,0,0,1,11.19,13.35Z"/><path class="cls-1" d="M15.71,17.77l.56-.06c0,.48,0,.95,0,1.43l-.56,0C15.7,18.67,15.71,18.22,15.71,17.77Z"/><path class="cls-1" d="M19.15,5.73l-.56-.05c0-.44,0-.88,0-1.33l.58,0C19.13,4.78,19.14,5.26,19.15,5.73Z"/><path class="cls-1" d="M16.27,5.74l-.56-.06c0-.45,0-.9,0-1.35l.56,0C16.25,4.78,16.26,5.26,16.27,5.74Z"/><path class="cls-1" d="M18.6,17.78l.49,0a5.39,5.39,0,0,1,0,1.39l-.55,0Z"/><path class="cls-1" d="M28,10.52a.08.08,0,0,1,0,.11L28,10.56S28,10.53,28,10.52Z"/><path class="cls-1" d="M33.66,29.1c0,2.72,0,5.45,0,8.17a2.31,2.31,0,0,1-1.79,2.32,8.83,8.83,0,0,1-4.48,0c-.69-.15-.3-.71-.32-1.06,0-.52.36-.18.56-.15a14.43,14.43,0,0,0,2.94.16c1.14-.1,1.64-.58,1.7-1.55,0-.46-.05-.62-.57-.52a7.41,7.41,0,0,1-3.28-.06,2.24,2.24,0,0,1-1.8-2.29c0-1.61,0-3.21,0-4.81,0-.62.35-.51.69-.49s.8-.21.78.48c0,1.39,0,2.77,0,4.16,0,1.18.46,1.67,1.65,1.82a7.45,7.45,0,0,0,2.49-.18l.13-.11.05,0c.23-.22.13-.5.13-.75,0-1.47,0-2.94,0-4.42,0-.57.17-.78.73-.71A3.05,3.05,0,0,0,33.66,29.1Z"/><path class="cls-1" d="M6.62,30.66a3,3,0,0,1,.12,1.4c0,1.27,0,2.54,0,3.8,0,.29.34.86-.39.83-.5,0-1.2.27-1-.82a3.79,3.79,0,0,1-3.51.85,2.31,2.31,0,0,1-.21-4.46A7.72,7.72,0,0,1,4.81,32c.45,0,.52-.12.5-.51A1.49,1.49,0,0,0,3.81,30a9.22,9.22,0,0,0-2.57.1c-.19,0-.59.3-.59-.19s-.24-.94.38-1.05a8.61,8.61,0,0,1,3.78,0A2.13,2.13,0,0,1,6.6,30.54c-.23.21-.13.49-.13.74,0,1.51,0,3,0,4.53,0,.24.1.54-.31.6s-.53-.09-.63-.49c-.16.62.16.63.54.64s.56-.1.55-.52C6.6,34.24,6.61,32.45,6.62,30.66Zm-2.77,2.4a6.07,6.07,0,0,0-1.38.15,1.09,1.09,0,0,0-.93,1.17,1.18,1.18,0,0,0,1.07,1.16,3.08,3.08,0,0,0,2.12-.45c.75-.41.65-1.09.55-1.69s-.69-.19-1-.31A1.59,1.59,0,0,0,3.85,33.06Z"/><path class="cls-1" d="M8,36.61c.82-1.17,1.6-2.32,2.41-3.43a.7.7,0,0,0,0-1c-.78-1-1.5-2.15-2.25-3.24,1.09-.32,1.47-.2,2,.62l1.44,2.07a17.15,17.15,0,0,0,1.23-1.82A1.65,1.65,0,0,1,15,28.9c-.72,1-1.41,2.08-2.16,3.08a.82.82,0,0,0,0,1.17c.84,1.12,1.61,2.29,2.41,3.44l-.16.1a1.84,1.84,0,0,1-2.23-1.14,16.55,16.55,0,0,0-1.31-1.94,22,22,0,0,0-1.38,2.08A1.67,1.67,0,0,1,8,36.61Z"/><path class="cls-1" d="M22.15,26.66a3.3,3.3,0,0,1,.11,1.65c0,.39.1.55.52.52.65,0,1.3,0,1.94,0s.41.43.45.73,0,.61-.46.58c-.64-.05-1.29,0-1.94,0-.36,0-.51.08-.5.47,0,1.22,0,2.44,0,3.66,0,.85.41,1.25,1.28,1.3a4.92,4.92,0,0,0,.86,0c.28,0,.56-.1.82-.15l.06.09c.09,1.2.09,1.2-1.1,1.35a4.9,4.9,0,0,1-1.43,0,2.09,2.09,0,0,1-1.93-2.27c0-1.19,0-2.39,0-3.58,0-.61-.09-1-.79-.83a1.48,1.48,0,0,1-.36,0c-.14-.78.14-1.18,1-1.14H19.55c.05,0,.1-.11.15-.11,1.14-.12,1.12-.12,1.17-1.25,0-.31-.17-.66.13-.93v.56a.56.56,0,0,1,.71-.41c.4.06.28.38.29.61,0,.41,0,.82,0,1.23h.14Zm0,3.6h-.05v4.1h.05Z"/><path class="cls-1" d="M16.68,32.7c0-1.12,0-2.24,0-3.36,0-.67.39-.5.74-.51s.74-.11.72.53c0,2.26,0,4.53,0,6.79,0,.71-.42.52-.79.55s-.71,0-.69-.57C16.72,35,16.68,33.84,16.68,32.7Z"/><path class="cls-1" d="M16.65,26.49a.7.7,0,0,1,.72-.76.75.75,0,0,1,.06,1.49A.71.71,0,0,1,16.65,26.49Z"/><path class="cls-1" d="M6.62,30.66c0,1.79,0,3.58,0,5.38,0,.42-.16.53-.55.52s-.7,0-.54-.64c.1.4.29.55.63.49s.31-.36.31-.6c0-1.51,0-3,0-4.53,0-.25-.1-.53.13-.74A.1.1,0,0,1,6.62,30.66Z"/><path class="cls-1" d="M33.66,29.1a3.05,3.05,0,0,1-.43,0c-.56-.07-.75.14-.73.71,0,1.48,0,2.95,0,4.42,0,.25.1.53-.13.75q0-3,0-6h0c.39,0,.79.12,1.16-.09C33.71,28.85,33.67,29,33.66,29.1Z"/><path class="cls-1" d="M32.36,28.94q0,3,0,6l-.05,0h0c0-1.93,0-3.86,0-5.79A.87.87,0,0,1,32.36,28.94Z"/><path class="cls-1" d="M22.15,26.66v2H22c0-.41,0-.82,0-1.23,0-.23.11-.55-.29-.61a.56.56,0,0,0-.71.41v-.56A3.7,3.7,0,0,1,22.15,26.66Z"/><path class="cls-1" d="M19.55,29h1.13c-.84,0-1.12.36-1,1.14C19.24,29.77,19.55,29.34,19.55,29Z"/><path class="cls-1" d="M33.51,28.85c-.37.21-.77.07-1.16.09C32.73,28.71,33.12,28.86,33.51,28.85Z"/><path class="cls-1" d="M32.29,35h0l-.13.11Z"/><ellipse class="cls-1" cx="22.08" cy="32.31" rx="0.04" ry="2.9"/></g></g></g></svg>