<svg xmlns="http://www.w3.org/2000/svg" viewBox="0 0 41.38 30.37"><defs><style>.cls-1{fill:#fff;}</style></defs><g id="Layer_2" data-name="Layer 2"><g id="Version_11" data-name="Version 11"><path class="cls-1" d="M9.3,9.32c-.16-.31-.1-.69-.29-1V6.25c.21-.3.14-.68.3-1,.23.07.2.28.2.45,0,1,0,2.11,0,3.17C9.51,9,9.54,9.25,9.3,9.32Z"/><path class="cls-1" d="M33.24,1.71a1.06,1.06,0,0,1,.37.33,1.05,1.05,0,0,1,.13.61q0,4.65,0,9.31a.91.91,0,0,1-.14.6,1,1,0,0,1-.36.31.82.82,0,0,1-.15-.64c0-1.27-.06-2.54.08-3.81a5.27,5.27,0,0,0,0-2.27c-.13-1.27,0-2.54-.07-3.81A.79.79,0,0,1,33.24,1.71Z"/><path class="cls-1" d="M34.43,11.62a1.08,1.08,0,0,1-.37.45c-.17-.15-.13-.36-.13-.55q0-4.23,0-8.46c0-.19,0-.4.13-.55a1.08,1.08,0,0,1,.37.45,2.18,2.18,0,0,1,.14.84v7A1.79,1.79,0,0,1,34.43,11.62Z"/><path class="cls-1" d="M35.33,10.05a3.06,3.06,0,0,1-.53,1c-.19-.16-.16-.38-.16-.58q0-3.21,0-6.41c0-.21,0-.43.16-.59a2.33,2.33,0,0,1,.44.84,4.22,4.22,0,0,1,.13,1.06C35.35,7,35.41,8.5,35.33,10.05Z"/><path class="cls-1" d="M34.8,3.5v7.58a1.34,1.34,0,0,1-.37.54V3A1.45,1.45,0,0,1,34.8,3.5Z"/><path class="cls-1" d="M21.21,7.16l-.55-1.79a16.48,16.48,0,0,1-.12-3.51c0-.14,0-.32.23-.33a2,2,0,0,1,.64.54c.06,1.52,0,3.05,0,4.57A.6.6,0,0,1,21.21,7.16Z"/><path class="cls-1" d="M10.27,11.36a1.34,1.34,0,0,1-.32-.5,6.12,6.12,0,0,1-.07-1.35c0-1.71,0-3.42,0-5.13a5.85,5.85,0,0,0,0-.59,1.78,1.78,0,0,1,.36-.57.63.63,0,0,1,.24.6q0,3.47,0,6.94A.64.64,0,0,1,10.27,11.36Z"/><path class="cls-1" d="M33.6,12.56V2a.55.55,0,0,1,.27.27,1.46,1.46,0,0,1,.08.62v8.72a1.62,1.62,0,0,1-.07.62A.74.74,0,0,1,33.6,12.56Z"/><path class="cls-1" d="M23.84,7.34l.56,1.9c.11,1.12,0,2.25.05,3.38a.65.65,0,0,1-.15.55,1.82,1.82,0,0,1-.53-.42.91.91,0,0,1-.14-.6V7.91C23.63,7.71,23.56,7.45,23.84,7.34Z"/><path class="cls-1" d="M11.1,12.35a1.25,1.25,0,0,1-.37-.39,12.31,12.31,0,0,1,0-1.36c0-2.45,0-4.9,0-7.35q0-.31,0-.63a1.38,1.38,0,0,1,.36-.4c.18.15.14.36.14.55q0,4.52,0,9C11.23,12,11.27,12.2,11.1,12.35Z"/><path class="cls-1" d="M23.22,12.22a1.21,1.21,0,0,1-.37-.44,1.24,1.24,0,0,1-.12-.57q0-3.08,0-6.17c0-.21,0-.47.3-.51l.26.73c.14,2.13,0,4.27.06,6.4C23.35,11.86,23.38,12.06,23.22,12.22Z"/><path class="cls-1" d="M10.27,11.36a2.42,2.42,0,0,0,.11-.8V4a2.38,2.38,0,0,0-.11-.8,1,1,0,0,1,.3-.41c.22,0,.17.22.17.36v8.24c0,.13,0,.31-.17.36A1.09,1.09,0,0,1,10.27,11.36Z"/><path class="cls-1" d="M22.66,11.53a.82.82,0,0,1-.26-.4,1.91,1.91,0,0,1-.14-.79q0-3.19,0-6.4c0-.21-.08-.46.2-.58a1.5,1.5,0,0,1,.28.53,18.68,18.68,0,0,1,0,2c0,1.7,0,3.4,0,5.1C22.76,11.16,22.82,11.36,22.66,11.53Z"/><path class="cls-1" d="M22.47,3.36c-.12.13-.07.28-.07.43v7.34a1.06,1.06,0,0,1-.28-.52A2.92,2.92,0,0,1,22,9.73c0-2.06,0-4.12,0-6.18,0-.2-.08-.46.22-.56A.9.9,0,0,1,22.47,3.36Z"/><path class="cls-1" d="M11.36,12.6l-.08-.07A1.28,1.28,0,0,1,11.2,12V2.62A1.3,1.3,0,0,1,11.28,2L11.35,2c.27,0,.25.24.25.41,0,1.33,0,2.66,0,4,0,.24.1.47,0,.71v.57c.06,1.52,0,3,0,4.54C11.6,12.36,11.62,12.58,11.36,12.6Z"/><path class="cls-1" d="M9.3,9.32A.34.34,0,0,0,9.38,9V5.55a.38.38,0,0,0-.07-.29,3,3,0,0,1,.34-.92c.24,0,.22.24.22.39,0,1.73,0,3.46,0,5.18,0,.16,0,.35-.2.41A3.66,3.66,0,0,1,9.3,9.32Z"/><path class="cls-1" d="M20.77,1.53c-.16.13-.1.3-.1.46,0,1.13,0,2.25,0,3.38-.18-.31-.36-.61-.55-.91A1.4,1.4,0,0,1,20,3.89c0-.74,0-1.49,0-2.24,0-.18-.05-.44.25-.49A1.34,1.34,0,0,1,20.77,1.53Z"/><path class="cls-1" d="M23.22,12.22V5.69c0-.15,0-.31.07-.43l.28,1c.12,1.88,0,3.76.05,5.65a.7.7,0,0,1-.13.59A.59.59,0,0,1,23.22,12.22Z"/><path class="cls-1" d="M16,14.56a1.46,1.46,0,0,1-.72-.07.48.48,0,0,1-.13-.33c0-.65,0-1.31,0-2a.39.39,0,0,1,.13-.32l.64.09a.35.35,0,0,1,.2.33,17.19,17.19,0,0,1,0,2A.31.31,0,0,1,16,14.56Z"/><path class="cls-1" d="M16,2.61l-.72.09a.37.37,0,0,1-.13-.29c0-.67,0-1.35,0-2A.39.39,0,0,1,15.3.1,2,2,0,0,1,16,0a.43.43,0,0,1,.14.32c0,.65,0,1.29,0,1.94A.47.47,0,0,1,16,2.61Z"/><path class="cls-1" d="M9.67,10.32c.1-.1.07-.23.07-.35V4.72c0-.13,0-.27-.09-.38a1.46,1.46,0,0,1,.26-.55c.14.1.1.24.1.37v6.4a.4.4,0,0,1-.06.3A1.47,1.47,0,0,1,9.67,10.32Z"/><path class="cls-1" d="M11.28,2V12.53l-.18-.18c0-3.38,0-6.75,0-10.13Z"/><path class="cls-1" d="M21.21,7.16c.2-1.52,0-3.06.1-4.58,0-.18-.07-.37.1-.51a.73.73,0,0,1,.28.27c0,2.09,0,4.18,0,6.26a.43.43,0,0,1-.13.37A10,10,0,0,1,21.21,7.16Z"/><path class="cls-1" d="M28,12h.1c.77.08.77.08.77.87,0,.4,0,.8,0,1.21a.6.6,0,0,1-.13.46c-.86.08-.87.07-.87-.78V12.47A.64.64,0,0,1,28,12Z"/><path class="cls-1" d="M33.89,12.27v-10l.18.2v9.56Z"/><path class="cls-1" d="M10.57,11.77c.13-.13.08-.29.08-.43V3.24c0-.15,0-.31-.08-.43l.16-.19c.16.12.1.3.1.46v8.41c0,.16.06.34-.1.47A.33.33,0,0,1,10.57,11.77Z"/><path class="cls-1" d="M12.27,13.32a.76.76,0,0,1-.37-.27c0-1.12,0-2.24,0-3.36a.43.43,0,0,1,.14-.4l.54.84a3,3,0,0,1,0,1.07,16.64,16.64,0,0,1,0,1.73C12.59,13.11,12.62,13.38,12.27,13.32Z"/><path class="cls-1" d="M23.49,12.49V6.73c0-.16,0-.34.08-.48l.27,1.09c-.13.14-.07.31-.07.47,0,1.65,0,3.29,0,4.94A.59.59,0,0,1,23.49,12.49Z"/><path class="cls-1" d="M11.91,1.52a.76.76,0,0,1,.37-.26c.23,0,.3.15.3.31a21.14,21.14,0,0,1,0,2.87l-.45.72c-.24,0-.23-.22-.23-.37C11.89,3.7,11.85,2.61,11.91,1.52Z"/><path class="cls-1" d="M28.77,14.48c0-.64,0-1.28,0-1.92,0-.37-.05-.59-.48-.52-.05,0-.11,0-.16-.07l1.27,0a.44.44,0,0,1,.13.32q0,1,0,1.92a.48.48,0,0,1-.13.32l0,0h0A.86.86,0,0,1,28.77,14.48Z"/><path class="cls-1" d="M35.42,4.79a6.75,6.75,0,0,1,0,5c-.12-.1-.1-.24-.1-.38V5.17C35.33,5,35.31,4.89,35.42,4.79Z"/><path class="cls-1" d="M33.17,8.42c.11.15.06.32.06.48,0,1.33,0,2.65,0,4a.82.82,0,0,1-.36.28.42.42,0,0,1-.14-.36c0-1.13-.07-2.25.06-3.37Z"/><path class="cls-1" d="M33.24,1.71c0,1.32,0,2.64,0,4,0,.16.05.33-.07.48l-.36-1c-.13-1.11,0-2.24-.06-3.36a.43.43,0,0,1,.14-.36A.76.76,0,0,1,33.24,1.71Z"/><path class="cls-1" d="M20.23,1.16c-.16.12-.1.3-.11.46,0,.94,0,1.89,0,2.84l-.53-.58c-.14-.24,0-.5,0-.75,0-.58,0-1.16,0-1.74,0-.18-.07-.44.24-.5A1,1,0,0,1,20.23,1.16Z"/><path class="cls-1" d="M12.27,13.32c.25,0,.2-.23.2-.38,0-.69,0-1.38,0-2.06a2.34,2.34,0,0,1,.1-.75l.35.39a8.15,8.15,0,0,1,0,3.19A1.79,1.79,0,0,1,12.27,13.32Z"/><path class="cls-1" d="M12.57,4.44a16,16,0,0,1-.1-2.68c0-.19,0-.4-.19-.5a1.81,1.81,0,0,1,.64-.38.49.49,0,0,1,.14.41c0,.75,0,1.5,0,2.24a1.26,1.26,0,0,1-.12.47Z"/><path class="cls-1" d="M22.66,11.53c0-2.37,0-4.74,0-7.11,0-.18-.06-.37.08-.53a1.92,1.92,0,0,1,.28.64c-.23.11-.17.33-.17.52,0,2.24,0,4.49,0,6.73A.4.4,0,0,1,22.66,11.53Z"/><path class="cls-1" d="M27.5,14.47l-.65-.12a.94.94,0,0,1-.13-.52c0-.55,0-1.1,0-1.65a.6.6,0,0,1,.13-.5,1.55,1.55,0,0,1,.55.18.38.38,0,0,1,.11.24A15.63,15.63,0,0,1,27.5,14.47Z"/><path class="cls-1" d="M24.3,13.17c0-1.16,0-2.31,0-3.47,0-.15-.06-.33.09-.46l.35.63c.11,1,0,2.09.05,3.13a.48.48,0,0,1-.13.41A.77.77,0,0,1,24.3,13.17Z"/><path class="cls-1" d="M22.22,3c-.16.14-.09.34-.09.51q0,3.56,0,7.11a.77.77,0,0,1-.19-.44,3.25,3.25,0,0,1-.11-.93c0-2,0-4,0-6,0-.19-.09-.44.2-.53Z"/><path class="cls-1" d="M19.77.89c-.17.14-.09.34-.1.51a15.78,15.78,0,0,1-.09,2.48l-.38-.32a.77.77,0,0,1-.12-.47c0-.67,0-1.34,0-2a.6.6,0,0,1,.13-.46A1.27,1.27,0,0,1,19.77.89Z"/><path class="cls-1" d="M22,2.72c-.14.16-.07.34-.07.52,0,2.31,0,4.62,0,6.93a.94.94,0,0,1-.18-.54,3.36,3.36,0,0,1-.08-.71c0-2,0-3.94,0-5.91,0-.17-.12-.41.18-.48A.31.31,0,0,1,22,2.72Z"/><path class="cls-1" d="M25.51,10.86l.46.36c.07.82,0,1.65,0,2.47a.42.42,0,0,1-.13.33l-.46-.19a.75.75,0,0,1-.13-.46c0-.69,0-1.38,0-2.06C25.28,11.13,25.22,10.89,25.51,10.86Z"/><path class="cls-1" d="M11.57,7.09c-.2-1.54-.05-3.08-.1-4.62,0-.17.07-.36-.12-.5a.72.72,0,0,1,.3-.25c.21,0,.22.19.22.33a24.68,24.68,0,0,1-.12,4Z"/><path class="cls-1" d="M13.48,11l.45.29a.81.81,0,0,1,.14.47c0,.65,0,1.3,0,1.94a.54.54,0,0,1-.14.42.93.93,0,0,1-.46-.18.73.73,0,0,1-.13-.43v-2.1A.47.47,0,0,1,13.48,11Z"/><path class="cls-1" d="M11.36,12.6c.17-.12.11-.3.11-.45V9a4.64,4.64,0,0,1,.1-1.34l.18.93a23.53,23.53,0,0,1,.12,3.94c0,.13,0,.31-.22.33A.73.73,0,0,1,11.36,12.6Z"/><path class="cls-1" d="M13.93,3.22l-.46.3a6.41,6.41,0,0,1,0-2.89.8.8,0,0,1,.46-.18A.29.29,0,0,1,14,.64,16.61,16.61,0,0,1,14,3,.44.44,0,0,1,13.93,3.22Z"/><path class="cls-1" d="M21.86,2.53c-.17.14-.1.34-.1.51,0,2.2,0,4.4,0,6.59A1.36,1.36,0,0,1,21.57,9q0-3.06,0-6.12c0-.17-.07-.37.11-.51Z"/><path class="cls-1" d="M32.13,10.41l.4-.53c.19,0,.19.21.2.35,0,.91,0,1.82,0,2.73a.74.74,0,0,1-.12.38.83.83,0,0,1-.38.23.46.46,0,0,1-.13-.37C32.1,12.27,32.05,11.34,32.13,10.41Z"/><path class="cls-1" d="M32.53,4.7l-.4-.53c-.08-.93,0-1.86,0-2.79A.46.46,0,0,1,32.23,1a.71.71,0,0,1,.38.23.77.77,0,0,1,.12.47c0,.85,0,1.69,0,2.54C32.73,4.42,32.76,4.62,32.53,4.7Z"/><path class="cls-1" d="M14.29,11.52l.37.17a.44.44,0,0,1,.22.41c0,.66,0,1.31,0,2a.44.44,0,0,1-.13.32,1.29,1.29,0,0,1-.57-.16c-.06-.79,0-1.59,0-2.39A.39.39,0,0,1,14.29,11.52Z"/><path class="cls-1" d="M41.38,26.21H17.83c-5.94,0-11.89,0-17.83,0a2.41,2.41,0,0,1,1.09-.08q19.58,0,39.16,0A3,3,0,0,1,41.38,26.21Z"/><path class="cls-1" d="M14.76,2.83,14.3,3a.34.34,0,0,1-.13-.27,17.17,17.17,0,0,1,0-2.38.44.44,0,0,1,.35-.1.19.19,0,0,1,.29.17A6.91,6.91,0,0,1,14.76,2.83Z"/><path class="cls-1" d="M30.13,11.74l.18-.06c.25-.09.36.07.38.25a10.73,10.73,0,0,1,0,2.12.29.29,0,0,1-.19.24l-.36.09a.31.31,0,0,1-.12-.23q0-1.08,0-2.16A.47.47,0,0,1,30.13,11.74Z"/><path class="cls-1" d="M17.39,2.72a.9.9,0,0,1-.46-.08.65.65,0,0,1-.13-.42c0-.59,0-1.17,0-1.75,0-.25,0-.51.41-.39h.17a.53.53,0,0,1,.13.38c0,.63,0,1.26,0,1.88A.46.46,0,0,1,17.39,2.72Z"/><path class="cls-1" d="M11.75,6.08c0-1.3,0-2.6,0-3.9,0-.15.06-.33-.09-.46a.41.41,0,0,1,.26-.2c.16.12.1.3.11.46,0,.91,0,1.81,0,2.72,0,.15-.06.33.1.46Z"/><path class="cls-1" d="M32.23,1c0,.9,0,1.8,0,2.7,0,.16.06.33-.1.46l-.36-.36c-.07-.7,0-1.39,0-2.08a6.79,6.79,0,0,0,0-.9A.75.75,0,0,1,32.23,1Z"/><path class="cls-1" d="M32.13,10.41c.16.12.1.3.1.46,0,.9,0,1.8,0,2.7a.62.62,0,0,1-.36.2.42.42,0,0,1-.13-.33c0-.89,0-1.78,0-2.67Z"/><path class="cls-1" d="M29.41,14.49V11.93a.55.55,0,0,1,.36-.07c.26,0,.22.25.22.41,0,.58,0,1.15,0,1.72,0,.23-.05.43-.31.48Z"/><path class="cls-1" d="M11.65,12.86c.15-.13.09-.31.09-.46,0-1.27,0-2.54,0-3.81l.28.7c0,1.09,0,2.17,0,3.26,0,.17.07.37-.11.5A.4.4,0,0,1,11.65,12.86Z"/><path class="cls-1" d="M30.5,14.29a11.44,11.44,0,0,0,.08-2.41c0-.14-.14-.19-.27-.2l.56-.27c.19,0,.2.17.21.29a19.45,19.45,0,0,1,0,2.16.61.61,0,0,1-.11.29A1,1,0,0,1,30.5,14.29Z"/><path class="cls-1" d="M16.94,12.19A1.21,1.21,0,0,1,17,14.31c-.16,0-.2-.12-.21-.24a10.6,10.6,0,0,1,0-1.69A.31.31,0,0,1,16.94,12.19Z"/><path class="cls-1" d="M18.21.27a1,1,0,0,1,.55.18c-.09.7,0,1.41-.05,2.12a.76.76,0,0,1-.14.6A.72.72,0,0,1,18.21,3a.56.56,0,0,1-.13-.37q0-1,0-2A.51.51,0,0,1,18.21.27Z"/><path class="cls-1" d="M31,14.15c0-.77,0-1.54,0-2.31,0-.15.05-.31-.09-.43l.33-.2c.22,0,.24.17.25.31,0,.74,0,1.48,0,2.21a.53.53,0,0,1-.12.29A.75.75,0,0,1,31,14.15Z"/><path class="cls-1" d="M25.86,14V11.68c0-.16-.06-.34.11-.46l.26.16a.79.79,0,0,1,.14.47c0,.61,0,1.23,0,1.84a.57.57,0,0,1-.14.46A.75.75,0,0,1,25.86,14Z"/><path class="cls-1" d="M18.57,3.17c0-.78,0-1.56,0-2.34,0-.15-.07-.35.18-.38L19,.51a.77.77,0,0,1,.12.47c0,.64,0,1.29,0,1.94a.54.54,0,0,1-.14.45Z"/><path class="cls-1" d="M32.61,13.34c0-1,0-2,0-3,0-.16.06-.34-.06-.48l.27-.46c.12.14.07.32.07.48,0,1.08,0,2.17,0,3.25A.47.47,0,0,1,32.61,13.34Z"/><path class="cls-1" d="M32.53,4.7a2.32,2.32,0,0,0,.06-1c0-.82,0-1.65,0-2.48a.47.47,0,0,1,.27.19c0,1.08,0,2.16,0,3.25,0,.16.05.33-.07.47Z"/><path class="cls-1" d="M14.29,11.52c0,.75,0,1.5,0,2.25,0,.16.06.34-.11.46s-.19,0-.25-.08V11.32Z"/><path class="cls-1" d="M26.22,14.15V11.38l.37.18a.61.61,0,0,1,.11.29,22,22,0,0,1,0,2.44A.92.92,0,0,1,26.22,14.15Z"/><path class="cls-1" d="M14.2.36c.17.16.09.36.09.55,0,.7,0,1.4,0,2.1l-.37.21V.45A.28.28,0,0,1,14.2.36Z"/><path class="cls-1" d="M35.42,4.79c0,1.67,0,3.33,0,5a.32.32,0,0,1-.1.26c-.14-.12-.09-.28-.09-.42V4.34A.75.75,0,0,1,35.42,4.79Z"/><path class="cls-1" d="M16,14.56V12.45a.79.79,0,0,0-.08-.48.7.7,0,0,1,.45.06,1,1,0,0,1,.13.64,11.21,11.21,0,0,0,.07,1.83A.86.86,0,0,1,16,14.56Z"/><path class="cls-1" d="M16,2.61V0h.37a.46.46,0,0,1,.13.33c0,.65,0,1.29,0,1.94a.46.46,0,0,1-.13.33Z"/><path class="cls-1" d="M27.5,14.47a2.75,2.75,0,0,1-.09-1.14c0-.49,0-1,0-1.47a.54.54,0,0,1,.37.08.61.61,0,0,1,.12.37c0,.61,0,1.21,0,1.81a.46.46,0,0,1-.13.37Z"/><path class="cls-1" d="M25.13,13.68a.42.42,0,0,1-.28-.16,1.38,1.38,0,0,1-.08-.75c0-.67,0-1.35,0-2,0-.19,0-.42.27-.43l.1.14a1.78,1.78,0,0,1,.13.79c0,.63,0,1.25,0,1.88A.69.69,0,0,1,25.13,13.68Z"/><path class="cls-1" d="M31.2,3.36a.52.52,0,0,1-.32-.2,12.14,12.14,0,0,1,0-2.09.46.46,0,0,1,.38-.18c.21,0,.22.18.23.32,0,.62,0,1.23,0,1.85C31.44,3.2,31.42,3.37,31.2,3.36Z"/><path class="cls-1" d="M25.13,13.68V10.46l.37.4c-.16.12-.1.3-.1.45,0,.84,0,1.68,0,2.52Z"/><path class="cls-1" d="M12.92,13.71V10.52l.28.27a.81.81,0,0,1,.14.5c0,.67,0,1.35,0,2,0,.18.06.43-.25.47Z"/><path class="cls-1" d="M31.77,10.77c.16.13.09.31.1.46v2.54a.67.67,0,0,1-.36.17,24.72,24.72,0,0,1,0-2.72.53.53,0,0,1,.12-.29Z"/><path class="cls-1" d="M13.08,13.78c.17-.11.12-.29.12-.45V10.79l.28.24c0,1,0,2,0,2.94A.79.79,0,0,1,13.08,13.78Z"/><path class="cls-1" d="M12.94,4l0-3.12L13.09.8c.2,0,.22.15.23.27q0,1.18,0,2.37a1.54,1.54,0,0,1-.11.3Z"/><path class="cls-1" d="M27.77,14.49V11.94L28,12c0,.6,0,1.2,0,1.8,0,.78-.14.72.72.72h.57A3.47,3.47,0,0,1,27.77,14.49Z"/><path class="cls-1" d="M13.21,3.74c0-.83,0-1.65,0-2.48,0-.16.06-.34-.11-.46a.63.63,0,0,1,.38-.17V3.52Z"/><path class="cls-1" d="M31.59,10.93c0,.87,0,1.75,0,2.62a.75.75,0,0,1-.09.39l-.19.08V11.67c0-.16.06-.34-.12-.46Z"/><path class="cls-1" d="M18.93,3.37c0-1,0-1.91,0-2.86.09,0,.2,0,.26.11,0,1,0,2,0,2.94Z"/><path class="cls-1" d="M31.69.83a.41.41,0,0,1,.18.33c0,.82,0,1.64,0,2.46,0,.06-.06.12-.09.19l-.19-.16a.85.85,0,0,1-.12-.47V1.29A.55.55,0,0,1,31.6.83Z"/><path class="cls-1" d="M31.6.83l0,2.82-.38-.29a.26.26,0,0,0,.12-.27v-2a.27.27,0,0,0-.1-.24A.42.42,0,0,1,31.6.83Z"/><path class="cls-1" d="M14.76,2.83c0-.73,0-1.46,0-2.19,0-.16,0-.35-.2-.38A1.44,1.44,0,0,1,15.2.11a17,17,0,0,0,0,2,2.88,2.88,0,0,1,0,.59C15,2.82,14.88,2.8,14.76,2.83Z"/><path class="cls-1" d="M29.69,14.47c.08-.08.18-.15.18-.29,0-.73,0-1.45,0-2.17,0,0-.05-.1-.08-.15s.23-.09.36-.12v2.64Z"/><path class="cls-1" d="M17.39,2.72V.09a.51.51,0,0,1,.38.08c.06.75,0,1.5,0,2.26a.44.44,0,0,1-.13.37A.33.33,0,0,1,17.39,2.72Z"/><path class="cls-1" d="M17.66,2.8c0-.72,0-1.45,0-2.17,0-.16-.06-.34.1-.46a.49.49,0,0,1,.37.09,12,12,0,0,0-.07,2c0,.22.05.46-.13.64Z"/><path class="cls-1" d="M17.22.08c-.29,0-.29.18-.29.39,0,.72,0,1.44,0,2.17l-.27,0a.36.36,0,0,1-.12-.28,18,18,0,0,1,0-2.32A1.2,1.2,0,0,1,17.22.08Z"/><path class="cls-1" d="M14.75,14.39V12.21a.93.93,0,0,0-.09-.52l.36.11a.7.7,0,0,1,.14.46c0,.57,0,1.14,0,1.71,0,.18.06.42-.24.44Z"/><path class="cls-1" d="M26.68,14.29a2.24,2.24,0,0,1-.09-1.06c0-.55,0-1.11,0-1.67l.26.12v2.67Z"/><path class="cls-1" d="M14.91,14.41c.17-.11.11-.29.11-.45,0-.72,0-1.44,0-2.16l.28.08v2.61A.53.53,0,0,1,14.91,14.41Z"/><path class="cls-1" d="M17.94,2.89c0-.74,0-1.47,0-2.21,0-.17-.07-.38.2-.42a.06.06,0,0,1,.07,0V3Z"/><path class="cls-1" d="M30.84,1.07c.2.15.12.36.11.54a5.75,5.75,0,0,1-.07,1.55.45.45,0,0,1-.29-.25,2.38,2.38,0,0,1,0-1.6A.41.41,0,0,1,30.84,1.07Z"/><path class="cls-1" d="M16.57,0a3.31,3.31,0,0,1,.09,1.29c0,.44,0,.88,0,1.31h-.27V0Z"/><path class="cls-1" d="M15.12,2.72c-.18-.18-.09-.4-.09-.6,0-.53,0-1.06,0-1.58A.44.44,0,0,1,15.2.11h.1V2.7Z"/><path class="cls-1" d="M25,10.32c-.21.1-.18.29-.18.47,0,.91,0,1.82,0,2.73l-.18-.11c0-1,0-2,0-3.06,0-.16-.06-.33.07-.48Z"/><path class="cls-1" d="M16.59,14.5c-.25,0-.2-.23-.2-.39V12l.27,0a.68.68,0,0,1,.14.42v1.57a.63.63,0,0,1-.14.42l0,0Z"/><path class="cls-1" d="M16.66,14.48V12.07l.28.12v1.75c0,.13,0,.27.09.37A.48.48,0,0,1,16.66,14.48Z"/><path class="cls-1" d="M21.46,14c-.15.18-.34.09-.52.08a2.57,2.57,0,0,1-.08-1.48A.15.15,0,0,1,21,12.5a1.13,1.13,0,0,1,.35.37C21.47,13.25,21.39,13.65,21.46,14Z"/><path class="cls-1" d="M20,11.55l.28.27a2.79,2.79,0,0,1,0,1.76.78.78,0,0,1-.27-.27A2.54,2.54,0,0,1,20,11.55Z"/><path class="cls-1" d="M21,12.5a6.7,6.7,0,0,0-.08,1.61.31.31,0,0,1-.27-.17,2.48,2.48,0,0,1,0-1.76Z"/><path class="cls-1" d="M19.85,13.13a.66.66,0,0,1-.27-.28,2.45,2.45,0,0,1,0-1.75l.27.27A3.88,3.88,0,0,1,19.85,13.13Z"/><path class="cls-1" d="M18.12,11.41c-.67-.56-.66-1.05,0-1.34A1.61,1.61,0,0,1,18.12,11.41Z"/><path class="cls-1" d="M21.46,14c-.31-.36-.13-.77-.09-1.16C21.91,13.37,21.93,13.68,21.46,14Z"/><path class="cls-1" d="M30.58,1.31v1.6A1.21,1.21,0,0,1,30.58,1.31Z"/><path class="cls-1" d="M19,12.31l-.18-.18a2.54,2.54,0,0,1,0-1.76l.18.18A2.79,2.79,0,0,1,19,12.31Z"/><path class="cls-1" d="M20.68,12.18v1.76l-.18-.18a3.39,3.39,0,0,1,0-1.76Z"/><path class="cls-1" d="M20.5,12v1.76l-.19-.18,0-1.76Z"/><path class="cls-1" d="M19.85,13.13V11.37l.18.18v1.76Z"/><path class="cls-1" d="M19.59,11.1v1.75l-.19-.17a2.48,2.48,0,0,1,0-1.76Z"/><path class="cls-1" d="M19.41,10.92l0,1.76-.18-.18a3.39,3.39,0,0,1,0-1.76Z"/><path class="cls-1" d="M19.22,10.74V12.5L19,12.31V10.55Z"/><path class="cls-1" d="M18.86,10.37v1.76L18.66,12a2.51,2.51,0,0,1,0-1.75Z"/><path class="cls-1" d="M18.68,10.2l0,1.75-.18-.18a2.9,2.9,0,0,1-.08-1.49.15.15,0,0,1,.18-.14Z"/><path class="cls-1" d="M18.58,10.14a5.94,5.94,0,0,0-.1,1.63.59.59,0,0,1-.27-.27,5,5,0,0,1,.09-1.44C18.41,10.05,18.51,10,18.58,10.14Z"/><path class="cls-1" d="M18.3,10.06a5,5,0,0,1-.09,1.44l-.09-.09V10.07Z"/><path class="cls-1" d="M6.39,24.67c0-.93,1.15-1.35,1-2.39h.27c.15,1.13-1,1.53-1,2.37a.74.74,0,0,0,.78.8A1.15,1.15,0,0,0,8.36,25l.19.17a1.47,1.47,0,0,1-1.1.54A1,1,0,0,1,6.39,24.67Zm.84-3.39a.29.29,0,1,1,.58,0,.29.29,0,1,1-.58,0Z"/><path class="cls-1" d="M8.89,22.07c0-1.43.77-2.32,1.85-2.32s1.86.89,1.86,2.32-.77,2.35-1.86,2.35S8.89,23.49,8.89,22.07Zm3.38,0c0-1.25-.61-2-1.53-2s-1.52.79-1.52,2,.61,2.08,1.52,2.08S12.27,23.32,12.27,22.07Zm-1.73,2.26h.34a1.2,1.2,0,0,0,1.21.79,1.77,1.77,0,0,0,.46-.06l.06.27a2.23,2.23,0,0,1-.55.08A1.53,1.53,0,0,1,10.54,24.33Z"/><path class="cls-1" d="M13.41,23.16V21.05h.31v2.07c0,.69.22,1,.74,1s.68-.2,1.06-.66V21.05h.3v3.29h-.25l0-.55h0a1.48,1.48,0,0,1-1.11.63C13.73,24.42,13.41,24,13.41,23.16Z"/><path class="cls-1" d="M16.67,22.7A1.57,1.57,0,0,1,18.1,21c.78,0,1.26.55,1.26,1.52a1.1,1.1,0,0,1,0,.25H17a1.29,1.29,0,0,0,1.24,1.42,1.46,1.46,0,0,0,.88-.3l.12.24a1.8,1.8,0,0,1-1,.32A1.56,1.56,0,0,1,16.67,22.7Zm2.4-.21c0-.84-.38-1.26-1-1.26A1.23,1.23,0,0,0,17,22.49Zm-1.33-2.23.92-1.08.22.2-1,1Z"/><path class="cls-1" d="M21.09,22.07c0-1.43.77-2.32,1.85-2.32s1.86.89,1.86,2.32-.77,2.35-1.86,2.35S21.09,23.49,21.09,22.07Zm3.38,0c0-1.25-.61-2-1.53-2s-1.52.79-1.52,2,.61,2.06,1.52,2.06S24.47,23.32,24.47,22.07Z"/><path class="cls-1" d="M25.67,21.05h.25l0,.51h0A1.62,1.62,0,0,1,27.1,21c.68,0,1,.41,1,1.26v2.11h-.3V22.27c0-.7-.22-1-.75-1s-.67.21-1.07.62v2.48h-.3Z"/><path class="cls-1" d="M28.89,22.7A1.57,1.57,0,0,1,30.35,21a1.54,1.54,0,0,1,1,.4l0-.6V19.42h.31v4.92h-.26l0-.43h0a1.54,1.54,0,0,1-1.07.51C29.43,24.42,28.89,23.81,28.89,22.7Zm2.43.91V21.66a1.34,1.34,0,0,0-.95-.42,1.31,1.31,0,0,0-1.16,1.46c0,.87.39,1.45,1.09,1.45A1.44,1.44,0,0,0,31.32,23.61Z"/><path class="cls-1" d="M32.51,23.52c0-.73.66-1.08,2.12-1.24,0-.5-.13-1-.77-1a1.8,1.8,0,0,0-1,.38l-.14-.22A2.19,2.19,0,0,1,33.89,21c.78,0,1,.57,1,1.27v2.1h-.25l0-.43h0a1.92,1.92,0,0,1-1.16.51A.87.87,0,0,1,32.51,23.52Zm2.12.11V22.51c-1.35.16-1.81.47-1.81,1a.62.62,0,0,0,.7.65A1.71,1.71,0,0,0,34.63,23.63Z"/><path class="cls-1" d="M37.44,20.74a.74.74,0,0,0-.78-.8,1.17,1.17,0,0,0-.88.43l-.19-.16a1.45,1.45,0,0,1,1.1-.54,1,1,0,0,1,1.05,1c0,.93-1.14,1.35-1,2.39h-.28C36.3,22,37.44,21.58,37.44,20.74Zm-1.11,3.37a.29.29,0,1,1,.57,0,.29.29,0,1,1-.57,0Z"/><path class="cls-1" d="M6.46,27.5h.2v2.82h-.2Z"/><path class="cls-1" d="M7.38,28.27h.16l0,.32h0a1,1,0,0,1,.7-.37c.43,0,.62.25.62.78v1.32H8.71V29c0-.44-.14-.64-.47-.64s-.42.13-.67.38v1.55H7.38Z"/><path class="cls-1" d="M9.57,28.27h.16l0,.32h0a1,1,0,0,1,.7-.37c.43,0,.62.25.62.78v1.32h-.19V29c0-.44-.13-.64-.46-.64s-.42.13-.67.38v1.55H9.57Z"/><path class="cls-1" d="M11.58,29.3a.93.93,0,1,1,.92,1.07A1,1,0,0,1,11.58,29.3Zm1.65,0c0-.54-.31-.92-.73-.92s-.72.38-.72.92.31.9.72.9S13.23,29.84,13.23,29.3Z"/><path class="cls-1" d="M13.61,28.27h.2l.47,1.28c.06.2.14.41.2.59h0c.07-.18.14-.39.21-.59l.46-1.28h.19l-.76,2.05h-.22Z"/><path class="cls-1" d="M15.49,29.81c0-.46.41-.67,1.32-.78,0-.31-.08-.65-.48-.65a1.11,1.11,0,0,0-.65.24l-.09-.14a1.38,1.38,0,0,1,.76-.26c.49,0,.65.35.65.79v1.31h-.16l0-.27h0a1.21,1.21,0,0,1-.73.32A.54.54,0,0,1,15.49,29.81Zm1.32.07v-.7c-.84.1-1.13.29-1.13.62a.39.39,0,0,0,.44.41A1.1,1.1,0,0,0,16.81,29.88Z"/><path class="cls-1" d="M17.48,29.3a1,1,0,0,1,.93-1.08.82.82,0,0,1,.6.25l-.11.13a.7.7,0,0,0-.48-.22.82.82,0,0,0-.75.92c0,.54.3.9.75.9A.83.83,0,0,0,19,30l.09.13a.93.93,0,0,1-1.58-.8Z"/><path class="cls-1" d="M19.41,27.6a.17.17,0,0,1,.34,0,.17.17,0,1,1-.34,0Zm.07.67h.19v2.05h-.19Z"/><path class="cls-1" d="M20.2,29.3a.93.93,0,1,1,.93,1.07A1,1,0,0,1,20.2,29.3Zm1.65,0c0-.54-.31-.92-.72-.92s-.73.38-.73.92.31.9.73.9S21.85,29.84,21.85,29.3Zm-1-1.53.57-.67.14.12-.61.65Z"/><path class="cls-1" d="M22.58,28.27h.16l0,.32h0a1,1,0,0,1,.7-.37c.43,0,.62.25.62.78v1.32H23.9V29c0-.44-.13-.64-.46-.64s-.42.13-.67.38v1.55h-.19Z"/><path class="cls-1" d="M25.36,29.3a1,1,0,0,1,.94-1.08.84.84,0,0,1,.6.25l-.11.13a.72.72,0,0,0-.49-.22c-.42,0-.74.38-.74.92s.3.9.74.9a.81.81,0,0,0,.55-.23l.1.13a1,1,0,0,1-.66.27A1,1,0,0,1,25.36,29.3Z"/><path class="cls-1" d="M27.37,28.27h.16l0,.38h0a.71.71,0,0,1,.58-.43.49.49,0,0,1,.21,0l-.05.17a.37.37,0,0,0-.18,0c-.19,0-.41.15-.56.53v1.4h-.19Z"/><path class="cls-1" d="M28.42,29.3a1,1,0,0,1,.9-1.08c.48,0,.78.34.78,1a.76.76,0,0,1,0,.15H28.62a.8.8,0,0,0,.77.89.91.91,0,0,0,.55-.19l.08.15a1.14,1.14,0,0,1-.65.2A1,1,0,0,1,28.42,29.3Zm1.5-.14c0-.52-.23-.78-.6-.78a.75.75,0,0,0-.7.78Z"/><path class="cls-1" d="M30.36,29.81c0-.46.41-.67,1.33-.78,0-.31-.08-.65-.49-.65a1.17,1.17,0,0,0-.65.24l-.09-.14a1.42,1.42,0,0,1,.77-.26c.48,0,.65.35.65.79v1.31h-.16l0-.27h0a1.21,1.21,0,0,1-.73.32A.54.54,0,0,1,30.36,29.81Zm1.33.07v-.7c-.85.1-1.13.29-1.13.62a.39.39,0,0,0,.43.41A1.12,1.12,0,0,0,31.69,29.88Z"/><path class="cls-1" d="M32.52,29.75V28.43H32.2v-.15h.33l0-.6h.16v.6h.6v.16h-.6v1.34c0,.26.07.44.35.44a.84.84,0,0,0,.26-.07l0,.15a1,1,0,0,1-.34.08C32.64,30.37,32.52,30.12,32.52,29.75Z"/><path class="cls-1" d="M33.65,27.6a.16.16,0,0,1,.17-.16.16.16,0,0,1,.17.16.16.16,0,0,1-.17.17A.17.17,0,0,1,33.65,27.6Zm.07.67h.19v2.05h-.19Z"/><path class="cls-1" d="M34.28,28.27h.2l.46,1.28c.07.2.14.41.21.59h0c.06-.18.14-.39.2-.59l.46-1.28H36l-.76,2.05h-.22Z"/><path class="cls-1" d="M36.15,29.81c0-.46.42-.67,1.33-.78,0-.31-.08-.65-.49-.65a1.17,1.17,0,0,0-.65.24l-.09-.14a1.42,1.42,0,0,1,.77-.26c.48,0,.65.35.65.79v1.31h-.16l0-.27h0a1.21,1.21,0,0,1-.73.32A.54.54,0,0,1,36.15,29.81Zm1.33.07v-.7c-.84.1-1.13.29-1.13.62a.39.39,0,0,0,.43.41A1.12,1.12,0,0,0,37.48,29.88Z"/><path class="cls-1" d="M38.77,28.11a.78.78,0,1,1,1.55,0,.78.78,0,1,1-1.55,0Zm1.42,0a.65.65,0,1,0-1.29,0,.65.65,0,1,0,1.29,0Zm-.93-.46h.29c.17,0,.33.06.33.28a.25.25,0,0,1-.17.23l.21.37h-.16l-.17-.32h-.2v.32h-.13Zm.25.44c.13,0,.22,0,.22-.16s0-.16-.2-.16h-.14v.32Z"/></g></g></svg>