<svg xmlns="http://www.w3.org/2000/svg" width="96" height="107" viewBox="0 0 96 107">
  <g transform="translate(-9 -21)">
    <path d="M75.6109642,41.6780966 C69.04475,41.6780966 63.7047755,47.0211483 63.7047755,53.5876311 C63.7047755,55.7853927 64.3194715,57.9421631 65.4795132,59.826184 C67.6703528,63.3782334 71.4562497,65.5003188 75.6109642,65.5003188 C79.9800342,65.5003188 83.9913197,63.1086371 86.0844384,59.2633426 C87.0238199,57.530674 87.518729,55.570977 87.518729,53.5892077 C87.5171529,47.0195717 82.1771784,41.6780966 75.6109642,41.6780966 Z M83.3120018,57.7561259 C81.7752618,60.5860987 78.8262971,62.3439926 75.6109642,62.3439926 C72.5595502,62.3439926 69.7745045,60.783172 68.1621096,58.1707681 C67.3078398,56.7849486 66.8554866,55.1989025 66.8554866,53.5876311 C66.8554866,48.7601232 70.7832364,44.8312696 75.6093881,44.8312696 C80.4355397,44.8312696 84.3632946,48.7601232 84.3632946,53.5876311 C84.3648657,55.0443971 83.9976242,56.4869737 83.3120018,57.7561259 Z" transform="rotate(40 75.612 53.59)"/>
    <path d="M87.7544273,123.624894 C88.3315185,123.508903 88.7980005,123.083601 88.9727309,122.516531 L99.2257169,88.526203 C99.3699897,88.0509603 99.2866321,87.5322207 98.9948805,87.1262506 C97.1449827,84.505166 95.1492092,82.1192863 93.0524447,80.0169412 C94.0463239,75.2677357 94.5512786,70.4267036 94.5512786,65.6098363 C94.5512786,42.5613682 83.2146437,21.1561124 64.9641361,9.74545333 C64.4431511,9.42164386 63.7907175,9.42164386 63.2665263,9.74545333 C45.0192249,21.1545014 33.6809869,42.5613682 33.6809869,65.6082253 C33.6809869,70.2801033 34.152278,74.9761461 35.083639,79.5819733 C32.9916836,81.6843184 30.99591,84.0718091 29.1412032,86.6961157 C28.8542607,87.1053077 28.7709031,87.6192143 28.9135728,88.0960681 L39.1713679,122.084785 C39.3428923,122.655077 39.8093743,123.077157 40.3880684,123.194759 C40.9635566,123.310751 41.5598841,123.0981 41.9381994,122.6438 C44.7563278,119.231718 48.6613112,116.53975 53.0840737,114.928757 L53.0840737,116.723403 C53.0840737,117.612671 53.8022315,118.334395 54.6871046,118.334395 L73.448979,118.334395 C74.3322491,118.334395 75.05201,117.612671 75.05201,116.723403 L75.05201,115.352448 C79.4731694,116.963441 83.3765498,119.661853 86.1978843,123.067491 C86.5040632,123.438019 86.96253,123.649059 87.4338211,123.649059 C87.5460333,123.655503 87.6502303,123.642615 87.7544273,123.624894 Z M73.8866065,111.598836 C73.7455398,111.565005 73.5996639,111.542451 73.4553911,111.542451 C73.1075334,111.542451 72.7628818,111.651999 72.4871604,111.872705 C72.0880057,112.175571 71.8523602,112.647592 71.8523602,113.153444 L71.8523602,115.114021 L56.2965477,115.114021 L56.2965477,112.726531 C56.2965477,112.223901 56.0625052,111.753491 55.6633505,111.444181 C55.2625927,111.141314 54.7416077,111.039822 54.2639045,111.175145 C49.3666449,112.549321 44.9038067,115.101133 41.4364507,118.464886 L32.2190227,87.9253029 C34.0160204,85.4556515 35.9412605,83.2212051 37.9498583,81.2767373 C38.3506161,80.8917101 38.5221404,80.3165858 38.4051191,79.7704594 C37.4016218,75.1066364 36.8918579,70.341321 36.8918579,65.6050033 C36.8918579,44.0241493 47.300338,23.9721271 64.1177358,13.0157679 C80.9367367,23.9705161 91.3436137,44.0209274 91.3436137,65.6050033 C91.3436137,70.4718113 90.8049953,75.3676172 89.7437888,80.1538756 C89.6844766,80.4180783 89.7101251,80.7467208 89.7806585,81.0044796 C89.857604,81.2783483 90.0098919,81.5199971 90.2102708,81.7149272 C92.2140595,83.656173 94.1312845,85.8825645 95.9218701,88.3457719 L86.7044421,118.886966 C83.2467043,115.51838 78.782263,112.966569 73.8866065,111.598836 Z" transform="rotate(40 64.07 66.577)"/>
    <path d="M73.2118077,64.3094243 C72.335951,64.3802335 71.6843482,65.1558324 71.7528531,66.0460563 C71.7719625,66.2460348 73.2060217,86.2567028 63.2716842,108.674806 C62.9078051,109.487546 63.2688071,110.442328 64.0700265,110.803711 C64.2846394,110.903735 64.5008326,110.948966 64.7217867,110.948966 C65.3274238,110.948966 65.9075663,110.592761 66.1745166,109.994494 C76.4568405,86.7829998 74.9909648,66.6287958 74.9224676,65.7837275 C74.8523748,64.9031795 74.0972033,64.2466802 73.2118077,64.3094243 Z" transform="rotate(40 69.08 87.627)"/>
    <path d="M21.2756399,129.725969 C21.9227741,129.725969 22.5134252,129.329817 22.7635644,128.719973 L32.0655128,106.193558 C32.2736932,105.685629 32.2204377,105.110304 31.9202708,104.651689 C31.61849,104.194717 31.1165979,103.918561 30.5759746,103.918561 L11.9753052,103.918561 C11.4346819,103.918561 10.931176,104.193073 10.631009,104.651689 C10.3324559,105.110304 10.2775866,105.692204 10.4873808,106.193558 L19.7877155,128.719973 C20.0394684,129.329817 20.6268919,129.725969 21.2756399,129.725969 Z M28.1472042,107.201198 L21.2756399,123.842866 L14.4040756,107.201198 L28.1472042,107.201198 Z" transform="rotate(40 21.276 116.822)"/>
  </g>
</svg>
