<svg xmlns="http://www.w3.org/2000/svg" width="111" height="100" viewBox="0 0 111 100">
  <path d="M111,32.7323082 C111,25.2238561 106.94136,18.3709756 100.373739,14.7181044 C99.1876477,7.36340969 92.7654969,1.7259246 85.0423527,1.7259246 C80.8096256,1.7259246 76.7780854,3.44162467 73.8563243,6.45897956 C71.9305246,5.6267917 69.830204,5.18341823 67.6626766,5.18341823 C63.0078475,5.18341823 58.7124664,7.20296715 55.7831175,10.6777127 C49.0010852,3.08300109 39.0080858,-0.836196138 28.7488608,0.149964802 C20.5695776,0.937297755 13.0911961,4.88754838 7.69145567,11.273334 C2.33138892,17.6123239 -0.38463261,25.626472 0.0439732774,33.839448 C0.743140697,47.2398506 8.11464166,61.2904336 21.9536038,75.6010888 C32.8874983,86.9077593 44.9706289,95.3544984 51.200048,99.3830294 C51.8341766,99.793193 52.5608771,100 53.2895288,100 C53.9158527,100 54.5434774,99.8471052 55.1143016,99.5389433 C56.3532913,98.8702171 57.1229174,97.5819325 57.1229174,96.1771977 L57.1229174,63.3856751 C59.324265,65.72805 62.4545839,67.1961855 65.9248391,67.1961855 C66.8228085,67.1961855 67.5508098,66.4720376 67.5508098,65.5788212 C67.5508098,64.6856048 66.8228085,63.9614568 65.9248391,63.9614568 C61.0714248,63.9614568 57.1229174,60.0338493 57.1229174,55.2061246 L57.1229174,27.54596 C57.1229174,26.6527436 56.3949161,25.9285956 55.4969467,25.9285956 C54.5989772,25.9285956 53.8709759,26.6527436 53.8709759,27.54596 L53.8709759,96.1771977 C53.8709759,96.48385 53.6782442,96.6337257 53.5633423,96.6958325 C53.4508251,96.7566454 53.2247068,96.8342789 52.9725729,96.6710329 C41.7089316,89.3868553 4.83820221,63.3162363 3.29136205,33.6718891 C2.90568179,26.2801028 5.35222576,19.0651484 10.1800581,13.3556367 C15.0289196,7.62154103 21.734423,4.07520019 29.0619143,3.37002935 C38.5478277,2.45762022 47.7800895,6.20861156 53.8750951,13.422919 L53.8711927,20.6309727 C53.8707591,21.5241891 54.5983269,22.2485527 55.4962963,22.2491996 L55.4971635,22.2491996 C56.3946993,22.2491996 57.1227006,21.5256987 57.1231342,20.6326979 L57.126603,14.3405037 C57.1498001,14.3083721 57.1747317,14.27775 57.1957609,14.2434619 C59.4508739,10.5957662 63.3638267,8.41814687 67.6626766,8.41814687 C71.4045773,8.41814687 74.8962952,10.0848947 77.2422458,12.9911906 C77.8043981,13.6875198 78.8276757,13.7990102 79.5281439,13.2396177 C80.2281785,12.680441 80.3402621,11.6623641 79.777893,10.9658192 C78.9005192,9.87895033 77.8954525,8.93031224 76.7936947,8.13154992 C79.0412198,6.10315941 81.9742543,4.9604376 85.0423527,4.9604376 C91.8124612,4.9604376 97.3201661,10.4389897 97.3201661,17.1732634 C97.3201661,18.6228532 97.0678155,20.0403113 96.5704852,21.386821 C96.2606836,22.2252626 96.6927582,23.154708 97.5356615,23.4628698 C97.7208053,23.5305835 97.9100683,23.5624995 98.0962962,23.5624995 C98.7586083,23.5624995 99.3808131,23.1570801 99.6227575,22.5025867 C100.084967,21.251825 100.378292,19.9531892 100.502733,18.6271661 C105.023582,21.8731085 107.748059,27.0829625 107.748059,32.7320926 C107.748059,37.4506991 105.874073,41.8598499 102.544952,45.1161434 C102.345066,44.6977851 102.127403,44.2871903 101.889144,43.8871621 C101.431921,43.1188063 100.434442,42.8645566 99.661564,43.3197907 C98.8889027,43.7748092 98.6335169,44.7670083 99.0911735,45.5355799 C100.206589,47.4091347 100.796275,49.5576415 100.796275,51.7488467 C100.796275,56.6009396 97.9248105,60.9171459 93.605365,62.8687655 C93.6142536,62.620554 93.6203239,62.3716955 93.6203239,62.1213275 C93.6203239,60.6762664 93.469217,59.2327149 93.1709056,57.8307835 C92.9851113,56.9569754 92.1226965,56.3980143 91.2435883,56.5832564 C90.3651305,56.7680673 89.8036286,57.6263486 89.9894229,58.5003723 C90.2409063,59.6825578 90.3683824,60.9007566 90.3683824,62.1213275 C90.3683824,71.7153171 82.5216644,79.5205016 72.8766228,79.5205016 C72.0807643,79.5205016 71.2805699,79.4668051 70.4981528,79.3611373 C69.6077712,79.2392959 68.7889323,79.8607951 68.6681769,80.7460325 C68.5472047,81.6310543 69.1704935,82.4462059 70.0604414,82.5663221 C70.9874616,82.691614 71.9348605,82.7550146 72.8766228,82.7550146 C72.9132613,82.7550146 72.9494663,82.7537207 72.9861048,82.7537207 C72.9863216,82.7912436 72.9887064,82.8289821 72.9887064,82.8665049 C72.9887064,89.3719756 68.5491558,94.9531764 62.1926942,96.4387794 C61.3185723,96.6432143 60.7763653,97.5135719 60.9816712,98.3832826 C61.1577096,99.1285641 61.8256584,99.6310253 62.5631987,99.6310253 C62.6863389,99.6310253 62.8114303,99.6170081 62.9365216,99.5878956 C66.6623794,98.7171066 70.0404962,96.5933994 72.4484505,93.6081762 C74.8941273,90.5759416 76.2408646,86.7613339 76.2408646,82.8667206 C76.2408646,82.7394879 76.2352279,82.6116083 76.2324096,82.4839444 C84.6373776,81.1182419 91.3600078,74.7113227 93.1498764,66.4959746 C99.6032459,64.4966966 104.048433,58.5372482 104.048433,51.7488467 C104.048433,50.6354531 103.925943,49.5311167 103.690069,48.4537364 C108.347066,44.5213846 111,38.8463767 111,32.7323082 L111,32.7323082 Z"/>
  <path d="M85.2171157,40.9237979 C86.2017433,40.9237979 87,40.1828136 87,39.2688299 C87,38.3548462 86.2017433,37.6138618 85.2171157,37.6138618 C79.8953249,37.6138618 75.5657686,33.5949374 75.5657686,28.6549681 C75.5657686,27.7409844 74.7675119,27 73.7828843,27 C72.7982567,27 72,27.7409844 72,28.6549681 C72,31.9977829 73.4493661,35.0310083 75.7932647,37.2460176 C73.937401,40.105361 73.4144216,43.5110646 74.3724247,46.7790749 C74.5882726,47.5154254 75.3071315,48 76.0916006,48 C76.2465927,48 76.403962,47.981023 76.5608558,47.9415245 C77.5110143,47.7016644 78.0715531,46.792094 77.8131537,45.9101063 C77.1515848,43.6529506 77.4594295,41.3059852 78.6418384,39.2908961 C80.5799525,40.3275681 82.8242472,40.9237979 85.2171157,40.9237979 L85.2171157,40.9237979 Z"/>
</svg>
