<?xml version="1.0" encoding="utf-8"?>
<!-- Generator: Adobe Illustrator 24.3.0, SVG Export Plug-In . SVG Version: 6.00 Build 0)  -->
<svg version="1.1" id="Layer_1" xmlns="http://www.w3.org/2000/svg" xmlns:xlink="http://www.w3.org/1999/xlink" x="0px" y="0px"
	 viewBox="0 0 400 400" style="enable-background:new 0 0 400 400;" xml:space="preserve">
<style type="text/css">
	.st0{fill-rule:evenodd;clip-rule:evenodd;fill:#0F0E0F;}
	.st1{fill:#0F0E0F;}
</style>
<g>
	<path class="st0" d="M35.8,323.7c-6.1,0-12.2,3.2-12.2,9.9c0,8.3,7.4,9.3,14.2,10.6c11.7,3,28.9,6.3,28.9,21.8
		c0,19.2-16.5,25.8-33.1,25.8c-17.5,0-29.9-6.9-29.4-26.4h16.7c-0.6,8.6,4.3,14.4,12.9,14.4c6.6,0,15.4-2,15.4-10.2
		c0-9.1-11-9.7-17.7-11.4c-10.8-2.7-25.4-7.6-25.4-21.2c0-17.6,16.1-25.4,31.9-25.4c15,0,26.5,8.1,26.5,23.6l-16,0
		C47.9,327.5,43.8,323.7,35.8,323.7L35.8,323.7z"/>
	<path class="st0" d="M103,391.9c-17.4,0-27.8-11.6-27.8-28.4c0-16.8,10.4-28.3,27.8-28.3c17.4,0,27.8,11.6,27.8,28.3
		C130.8,380.3,120.4,391.9,103,391.9L103,391.9z M103,381.2c9.7,0,11.3-9.2,11.3-17.7c0-8.5-1.6-17.7-11.3-17.7
		c-9.7,0-11.3,9.2-11.3,17.7C91.7,372,93.3,381.2,103,381.2L103,381.2z"/>
	<path class="st0" d="M155.8,336.7h9.7v10.7h-9.7v43h-16v-43h-8v-10.7h8c-0.4-15.2,1-25,18.3-25c2.9,0,5.8,0.3,8.7,0.7v9.9
		C155.5,321.1,155.3,326.2,155.8,336.7L155.8,336.7z"/>
	<path class="st0" d="M180.2,326.1l16-5.8v16.4h12v10.7h-12v24.9c0,7,1.1,9,6.5,9c1.7,0,3.4-0.2,5.1-0.4v9.4
		c-1.8,0.8-10.3,1.6-12.5,1.6c-12.4,0-15.1-6.5-15.1-18.2v-26.4h-10.8v-10.7h10.8V326.1L180.2,326.1z"/>
	<path class="st0" d="M223.7,326.1l16-5.8v16.4h12v10.7h-12v24.9c0,7,1.1,9,6.6,9c1.7,0,3.4-0.2,5.1-0.4v9.4
		c-1.8,0.8-10.3,1.6-12.5,1.6c-12.5,0-15.1-6.5-15.1-18.2v-26.4h-10.7v-10.7h10.7V326.1L223.7,326.1z"/>
	<path class="st0" d="M271.2,367.8c0,6.9,1,13.4,9.2,13.4c5.6,0,8.3-2.1,9.9-6.9h14.4c-1.4,13.2-11.7,17.6-24.2,17.6
		c-18.4,0-25.7-10.3-25.7-28.2c0-16.1,9.4-28.5,25.7-28.5c10.1,0,18.4,3.4,22.8,12.8c1.5,3,2.2,6.2,2.7,9.6
		c0.4,3.3,0.4,6.7,0.4,10.3H271.2L271.2,367.8z M289.8,357.1c0-5.9-1.6-11.3-9.4-11.3c-7.4,0-9,5.4-9.2,11.3H289.8L289.8,357.1z"/>
	<polygon class="st0" points="329,358.7 344.8,336.1 362.5,336.1 344.1,359.6 363.7,390.4 345.1,390.4 329,361 328.8,361.2 
		328.8,390.4 312.9,390.4 312.9,313.2 328.8,313.2 328.8,358.5 329,358.7 	"/>
	<path class="st0" d="M270.3,192c2.9,0,5.2,2.3,5.2,5.3c0,2.9-2.3,5.3-5.2,5.3c-2.9,0-5.3-2.3-5.3-5.3
		C265.1,194.4,267.4,192,270.3,192L270.3,192z"/>
	<path class="st0" d="M269.4,298.3c2.9,0,5.2,2.3,5.2,5.3c0,2.9-2.3,5.3-5.2,5.3c-2.9,0-5.3-2.3-5.3-5.3
		C264.2,300.6,266.5,298.3,269.4,298.3L269.4,298.3z"/>
	<path class="st0" d="M281.3,271.8c2.9,0,5.2,2.4,5.2,5.3c0,2.9-2.3,5.3-5.2,5.3c-2.9,0-5.2-2.3-5.2-5.3
		C276.1,274.1,278.4,271.8,281.3,271.8L281.3,271.8z"/>
	<path class="st0" d="M277.7,285c2.9,0,5.2,2.3,5.2,5.3c0,2.9-2.3,5.3-5.2,5.3c-2.9,0-5.2-2.3-5.2-5.3
		C272.4,287.4,274.8,285,277.7,285L277.7,285z"/>
	<path class="st0" d="M270.9,245.2c2.9,0,5.2,2.3,5.2,5.3c0,2.9-2.3,5.3-5.2,5.3c-2.9,0-5.2-2.3-5.2-5.3
		C265.7,247.5,268.1,245.2,270.9,245.2L270.9,245.2z"/>
	<path class="st0" d="M278.9,258.4c2.9,0,5.2,2.4,5.2,5.3c0,2.9-2.3,5.3-5.2,5.3c-2.9,0-5.2-2.3-5.2-5.3
		C273.7,260.8,276,258.4,278.9,258.4L278.9,258.4z"/>
	<path class="st0" d="M259.5,218.6c2.9,0,5.2,2.3,5.2,5.3c0,2.9-2.3,5.3-5.2,5.3c-2.9,0-5.2-2.3-5.2-5.3
		C254.3,220.9,256.7,218.6,259.5,218.6L259.5,218.6z"/>
	<path class="st0" d="M262.9,205.3c2.9,0,5.2,2.3,5.2,5.3c0,2.9-2.3,5.3-5.2,5.3c-2.9,0-5.3-2.3-5.3-5.3
		C257.6,207.6,260,205.3,262.9,205.3L262.9,205.3z"/>
	<path class="st0" d="M261.5,231.9c2.9,0,5.2,2.3,5.2,5.3c0,2.9-2.3,5.3-5.2,5.3c-2.9,0-5.2-2.3-5.2-5.3
		C256.3,234.3,258.7,231.9,261.5,231.9L261.5,231.9z"/>
	<path class="st0" d="M254.9,192c2.9,0,5.2,2.3,5.2,5.3c0,2.9-2.3,5.3-5.2,5.3c-2.9,0-5.2-2.3-5.2-5.3
		C249.7,194.4,252.1,192,254.9,192L254.9,192z"/>
	<path class="st0" d="M254,298.3c2.9,0,5.2,2.3,5.2,5.3c0,2.9-2.3,5.3-5.2,5.3c-2.9,0-5.2-2.3-5.2-5.3
		C248.8,300.6,251.1,298.3,254,298.3L254,298.3z"/>
	<path class="st0" d="M284.8,298.3c2.9,0,5.2,2.3,5.2,5.3c0,2.9-2.3,5.3-5.2,5.3c-2.9,0-5.2-2.3-5.2-5.3
		C279.6,300.6,281.9,298.3,284.8,298.3L284.8,298.3z"/>
	<path class="st0" d="M285.7,192c2.9,0,5.2,2.3,5.2,5.3c0,2.9-2.3,5.3-5.2,5.3c-2.9,0-5.2-2.3-5.2-5.3
		C280.5,194.4,282.8,192,285.7,192L285.7,192z"/>
	<path class="st0" d="M219.8,271.8c2.9,0,5.2,2.4,5.2,5.3c0,2.9-2.3,5.3-5.2,5.3c-2.9,0-5.2-2.3-5.2-5.3
		C214.6,274.1,216.9,271.8,219.8,271.8L219.8,271.8z"/>
	<path class="st0" d="M235.2,271.8c2.9,0,5.2,2.4,5.2,5.3c0,2.9-2.3,5.3-5.2,5.3c-2.9,0-5.3-2.3-5.3-5.3
		C229.9,274.1,232.3,271.8,235.2,271.8L235.2,271.8z"/>
	<path class="st0" d="M250.5,271.8c2.9,0,5.2,2.4,5.2,5.3c0,2.9-2.3,5.3-5.2,5.3c-2.9,0-5.2-2.3-5.2-5.3
		C245.3,274.1,247.7,271.8,250.5,271.8L250.5,271.8z"/>
	<path class="st0" d="M265.9,271.8c2.9,0,5.3,2.4,5.3,5.3c0,2.9-2.3,5.3-5.3,5.3c-2.9,0-5.2-2.3-5.2-5.3
		C260.7,274.1,263,271.8,265.9,271.8L265.9,271.8z"/>
	<path class="st0" d="M296.7,271.8c2.9,0,5.2,2.4,5.2,5.3c0,2.9-2.3,5.3-5.2,5.3c-2.9,0-5.3-2.3-5.3-5.3
		C291.4,274.1,293.8,271.8,296.7,271.8L296.7,271.8z"/>
	<path class="st0" d="M312.1,271.8c2.9,0,5.2,2.4,5.2,5.3c0,2.9-2.3,5.3-5.2,5.3c-2.9,0-5.2-2.3-5.2-5.3
		C306.8,274.1,309.2,271.8,312.1,271.8L312.1,271.8z"/>
	<path class="st0" d="M231.5,285c2.9,0,5.3,2.3,5.3,5.3c0,2.9-2.3,5.3-5.3,5.3c-2.9,0-5.2-2.3-5.2-5.3
		C226.3,287.4,228.6,285,231.5,285L231.5,285z"/>
	<path class="st0" d="M246.9,285c2.9,0,5.2,2.3,5.2,5.3c0,2.9-2.3,5.3-5.2,5.3c-2.9,0-5.2-2.3-5.2-5.3
		C241.7,287.4,244,285,246.9,285L246.9,285z"/>
	<path class="st0" d="M262.3,285c2.9,0,5.2,2.3,5.2,5.3c0,2.9-2.3,5.3-5.2,5.3c-2.9,0-5.3-2.3-5.3-5.3
		C257,287.4,259.4,285,262.3,285L262.3,285z"/>
	<path class="st0" d="M293.1,285c2.9,0,5.2,2.3,5.2,5.3c0,2.9-2.3,5.3-5.2,5.3c-2.9,0-5.3-2.3-5.3-5.3
		C287.8,287.4,290.2,285,293.1,285L293.1,285z"/>
	<path class="st0" d="M308.4,285c2.9,0,5.3,2.3,5.3,5.3c0,2.9-2.3,5.3-5.3,5.3c-2.9,0-5.2-2.3-5.2-5.3
		C303.2,287.4,305.6,285,308.4,285L308.4,285z"/>
	<path class="st0" d="M224.8,245.2c2.9,0,5.3,2.3,5.3,5.3c0,2.9-2.3,5.3-5.3,5.3c-2.9,0-5.2-2.3-5.2-5.3
		C219.6,247.5,221.9,245.2,224.8,245.2L224.8,245.2z"/>
	<path class="st0" d="M240.2,245.2c2.9,0,5.2,2.3,5.2,5.3c0,2.9-2.3,5.3-5.2,5.3c-2.9,0-5.2-2.3-5.2-5.3
		C235,247.5,237.3,245.2,240.2,245.2L240.2,245.2z"/>
	<path class="st0" d="M255.5,245.2c2.9,0,5.3,2.3,5.3,5.3c0,2.9-2.3,5.3-5.3,5.3c-2.9,0-5.2-2.3-5.2-5.3
		C250.3,247.5,252.7,245.2,255.5,245.2L255.5,245.2z"/>
	<path class="st0" d="M286.4,245.2c2.9,0,5.2,2.3,5.2,5.3c0,2.9-2.3,5.3-5.2,5.3c-2.9,0-5.3-2.3-5.3-5.3
		C281.1,247.5,283.4,245.2,286.4,245.2L286.4,245.2z"/>
	<path class="st0" d="M301.7,245.2c2.9,0,5.2,2.3,5.2,5.3c0,2.9-2.3,5.3-5.2,5.3c-2.9,0-5.2-2.3-5.2-5.3
		C296.5,247.5,298.8,245.2,301.7,245.2L301.7,245.2z"/>
	<path class="st0" d="M317.1,245.2c2.9,0,5.2,2.3,5.2,5.3c0,2.9-2.3,5.3-5.2,5.3c-2.9,0-5.3-2.3-5.3-5.3
		C311.9,247.5,314.2,245.2,317.1,245.2L317.1,245.2z"/>
	<path class="st0" d="M217.4,258.4c2.9,0,5.2,2.4,5.2,5.3c0,2.9-2.3,5.3-5.2,5.3c-2.9,0-5.2-2.3-5.2-5.3
		C212.2,260.8,214.5,258.4,217.4,258.4L217.4,258.4z"/>
	<path class="st0" d="M232.8,258.4c2.9,0,5.2,2.4,5.2,5.3c0,2.9-2.3,5.3-5.2,5.3c-2.9,0-5.3-2.3-5.3-5.3
		C227.5,260.8,229.9,258.4,232.8,258.4L232.8,258.4z"/>
	<path class="st0" d="M248.1,258.4c2.9,0,5.2,2.4,5.2,5.3c0,2.9-2.3,5.3-5.2,5.3c-2.9,0-5.2-2.3-5.2-5.3
		C242.9,260.8,245.3,258.4,248.1,258.4L248.1,258.4z"/>
	<path class="st0" d="M263.6,258.4c2.9,0,5.2,2.4,5.2,5.3c0,2.9-2.3,5.3-5.2,5.3c-2.9,0-5.2-2.3-5.2-5.3
		C258.3,260.8,260.6,258.4,263.6,258.4L263.6,258.4z"/>
	<path class="st0" d="M294.3,258.4c2.9,0,5.2,2.4,5.2,5.3c0,2.9-2.3,5.3-5.2,5.3c-2.9,0-5.3-2.3-5.3-5.3
		C289.1,260.8,291.4,258.4,294.3,258.4L294.3,258.4z"/>
	<path class="st0" d="M309.7,258.4c2.9,0,5.3,2.4,5.3,5.3c0,2.9-2.3,5.3-5.3,5.3c-2.9,0-5.2-2.3-5.2-5.3
		C304.5,260.8,306.8,258.4,309.7,258.4L309.7,258.4z"/>
	<path class="st0" d="M325.1,258.4c2.9,0,5.2,2.4,5.2,5.3c0,2.9-2.3,5.3-5.2,5.3c-2.9,0-5.2-2.3-5.2-5.3
		C319.9,260.8,322.2,258.4,325.1,258.4L325.1,258.4z"/>
	<path class="st0" d="M228.8,218.6c2.9,0,5.2,2.3,5.2,5.3c0,2.9-2.3,5.3-5.2,5.3s-5.2-2.3-5.2-5.3
		C223.6,220.9,225.9,218.6,228.8,218.6L228.8,218.6z"/>
	<path class="st0" d="M244.2,218.6c2.9,0,5.2,2.3,5.2,5.3c0,2.9-2.3,5.3-5.2,5.3c-2.9,0-5.3-2.3-5.3-5.3
		C238.9,220.9,241.3,218.6,244.2,218.6L244.2,218.6z"/>
	<path class="st0" d="M275,218.6c2.9,0,5.2,2.3,5.2,5.3c0,2.9-2.3,5.3-5.2,5.3c-2.9,0-5.2-2.3-5.2-5.3
		C269.7,220.9,272,218.6,275,218.6L275,218.6z"/>
	<path class="st0" d="M290.3,218.6c2.9,0,5.2,2.3,5.2,5.3c0,2.9-2.3,5.3-5.2,5.3c-2.9,0-5.2-2.3-5.2-5.3
		C285.1,220.9,287.4,218.6,290.3,218.6L290.3,218.6z"/>
	<path class="st0" d="M305.7,218.6c2.9,0,5.2,2.3,5.2,5.3c0,2.9-2.3,5.3-5.2,5.3c-2.9,0-5.3-2.3-5.3-5.3
		C300.5,220.9,302.8,218.6,305.7,218.6L305.7,218.6z"/>
	<path class="st0" d="M232.1,205.3c2.9,0,5.3,2.3,5.3,5.3c0,2.9-2.3,5.3-5.3,5.3c-2.9,0-5.2-2.3-5.2-5.3
		C226.9,207.6,229.2,205.3,232.1,205.3L232.1,205.3z"/>
	<path class="st0" d="M247.5,205.3c2.9,0,5.2,2.3,5.2,5.3c0,2.9-2.3,5.3-5.2,5.3c-2.9,0-5.2-2.3-5.2-5.3
		C242.3,207.6,244.6,205.3,247.5,205.3L247.5,205.3z"/>
	<path class="st0" d="M278.3,205.3c2.9,0,5.2,2.3,5.2,5.3c0,2.9-2.3,5.3-5.2,5.3c-2.9,0-5.2-2.3-5.2-5.3
		C273.1,207.6,275.4,205.3,278.3,205.3L278.3,205.3z"/>
	<path class="st0" d="M293.7,205.3c2.9,0,5.2,2.3,5.2,5.3c0,2.9-2.3,5.3-5.2,5.3c-2.9,0-5.3-2.3-5.3-5.3
		C288.4,207.6,290.8,205.3,293.7,205.3L293.7,205.3z"/>
	<path class="st0" d="M309,205.3c2.9,0,5.3,2.3,5.3,5.3c0,2.9-2.3,5.3-5.3,5.3c-2.9,0-5.2-2.3-5.2-5.3
		C303.8,207.6,306.2,205.3,309,205.3L309,205.3z"/>
	<path class="st0" d="M215.4,231.9c2.9,0,5.3,2.3,5.3,5.3c0,2.9-2.3,5.3-5.3,5.3c-2.9,0-5.2-2.3-5.2-5.3
		C210.1,234.3,212.5,231.9,215.4,231.9L215.4,231.9z"/>
	<path class="st0" d="M230.8,231.9c2.9,0,5.2,2.3,5.2,5.3c0,2.9-2.3,5.3-5.2,5.3c-2.9,0-5.2-2.3-5.2-5.3
		C225.6,234.3,227.9,231.9,230.8,231.9L230.8,231.9z"/>
	<path class="st0" d="M246.1,231.9c2.9,0,5.3,2.3,5.3,5.3c0,2.9-2.3,5.3-5.3,5.3c-2.9,0-5.2-2.3-5.2-5.3
		C240.9,234.3,243.3,231.9,246.1,231.9L246.1,231.9z"/>
	<path class="st0" d="M276.9,231.9c2.9,0,5.2,2.3,5.2,5.3c0,2.9-2.3,5.3-5.2,5.3c-2.9,0-5.3-2.3-5.3-5.3
		C271.7,234.3,274,231.9,276.9,231.9L276.9,231.9z"/>
	<path class="st0" d="M292.3,231.9c2.9,0,5.2,2.3,5.2,5.3c0,2.9-2.3,5.3-5.2,5.3c-2.9,0-5.2-2.3-5.2-5.3
		C287.1,234.3,289.4,231.9,292.3,231.9L292.3,231.9z"/>
	<path class="st0" d="M307.7,231.9c2.9,0,5.2,2.3,5.2,5.3c0,2.9-2.3,5.3-5.2,5.3c-2.9,0-5.3-2.3-5.3-5.3
		C302.4,234.3,304.8,231.9,307.7,231.9L307.7,231.9z"/>
	<path class="st0" d="M323.1,231.9c2.9,0,5.3,2.3,5.3,5.3c0,2.9-2.3,5.3-5.3,5.3c-2.9,0-5.2-2.3-5.2-5.3
		C317.8,234.3,320.2,231.9,323.1,231.9L323.1,231.9z"/>
	<path class="st1" d="M371.8,324.6L371.8,324.6L371.8,324.6c0-3.3,1.3-6.3,3.5-8.5c2.2-2.2,5.2-3.5,8.5-3.5v0h0h0v0
		c3.3,0,6.3,1.4,8.5,3.5c2.2,2.2,3.5,5.2,3.5,8.5h0v0v0h0c0,3.3-1.3,6.4-3.5,8.6c-2.2,2.2-5.2,3.5-8.5,3.5v0h0h0v0
		c-3.3,0-6.3-1.4-8.5-3.5C373.1,331,371.8,327.9,371.8,324.6L371.8,324.6L371.8,324.6L371.8,324.6z M373.9,324.6L373.9,324.6
		L373.9,324.6L373.9,324.6L373.9,324.6c0,2.8,1.1,5.3,2.9,7.1c1.8,1.8,4.3,2.9,7,2.9v0h0h0v0c2.7,0,5.2-1.1,7-2.9
		c1.8-1.8,2.9-4.3,2.9-7.1h0v0v0h0c0-2.7-1.1-5.2-2.9-7c-1.8-1.8-4.3-2.9-7-2.9v0h0h0v0c-2.7,0-5.2,1.1-7,2.9
		C375,319.4,373.9,321.8,373.9,324.6L373.9,324.6z"/>
	<path class="st0" d="M381.6,323.5h1.7c1.1,0,1.7-0.1,2-0.2c0.3-0.1,0.5-0.2,0.6-0.4c0.2-0.2,0.2-0.5,0.2-0.8c0-0.4-0.1-0.7-0.3-0.9
		c-0.2-0.2-0.5-0.4-0.8-0.4c-0.2,0-0.7,0-1.6,0h-1.7V323.5L381.6,323.5z M379.3,329.9v-11.1h4.7c1.2,0,2,0.1,2.6,0.3
		c0.5,0.2,0.9,0.6,1.3,1.1c0.3,0.5,0.5,1.1,0.5,1.7c0,0.8-0.2,1.5-0.7,2.1c-0.5,0.6-1.2,0.9-2.1,1.1c0.4,0.3,0.8,0.6,1.2,0.9
		c0.3,0.3,0.7,0.9,1.3,1.8l1.3,2.2h-2.7l-1.6-2.4c-0.6-0.9-1-1.4-1.2-1.7c-0.2-0.2-0.4-0.4-0.7-0.4s-0.6-0.1-1.1-0.1h-0.4v4.6H379.3
		L379.3,329.9z"/>
</g>
</svg>
