<svg xmlns="http://www.w3.org/2000/svg" width="102" height="26" viewBox="0 0 102 26">
  <g transform="translate(0 3)">
    <polygon points=".173 1.048 4.103 1.048 4.103 16.01 11.032 16.01 11.032 18.677 .173 18.677"/>
    <path d="M16.5910957 3.01023333C16.5910957 4.10885556 15.7894957 4.99826667 14.4707478 4.99826667 13.2296348 4.99826667 12.4280348 4.10906667 12.4280348 3.01023333 12.4280348 1.88543333 13.255513 1.0222 14.5225043 1.0222 15.7894957 1.0222 16.5652174 1.88564444 16.5910957 3.01023333zM12.5315478 18.677L12.5315478 6.79418889 16.461913 6.79418889 16.461913 18.677 12.5315478 18.677zM18.9176348 10.6478111C18.9176348 9.05223333 18.8656696 7.94516667 18.8141217 6.7944L22.399513 6.7944 22.4082783 8.34627778 22.485913 8.34627778C23.0030609 7.50922222 24.2698435 6.27992222 26.3901913 6.27992222 28.9757217 6.27992222 30.9151304 8.03235556 30.9151304 11.7987889L30.9151304 18.6772111 26.9849739 18.6772111 26.9849739 12.2695667C26.9849739 10.6216333 26.4160696 9.49704444 24.9938087 9.49704444 23.9079652 9.49704444 23.2614261 10.2555667 22.9769739 10.9881222 22.8734609 11.2496889 22.8477913 11.6159667 22.8477913 11.9820333L22.8477913 18.6774222 18.9176348 18.6774222 18.9176348 10.6478111 18.9176348 10.6478111zM37.3012174 11.9554333L37.3527652 11.9554333C37.6372174 11.4063333 37.9475478 10.8832 38.2578783 10.4124222L40.8177391 6.79418889 45.549287 6.79418889 41.0243478 11.7464333 46.1956174 18.677 41.3605565 18.677 38.2837565 14.1001111 37.3012174 15.3553778 37.3012174 18.6767889 33.3710609 18.6767889 33.3710609.1064 37.3012174.1064 37.3012174 11.9554333z"/>
    <path d="M49.3502609 14.231C49.4535652 15.8789333 51.0826435 16.6634222 52.9185391 16.6634222 54.2629565 16.6634222 55.3490087 16.4801778 56.4091826 16.1139L56.9263304 18.1274778C55.6336696 18.6767889 54.0565565 18.9383556 52.3498435 18.9383556 48.0578087 18.9383556 45.6012522 17.1080222 45.6012522 13.1059889 45.6012522 9.86268889 47.5922087 6.73317778 51.9877565 6.73317778 56.0731826 6.73317778 57.6246261 9.49641111 57.6246261 12.6613889 57.6246261 13.3413778 57.5472 13.9428333 57.4954435 14.2307889L49.3502609 14.2307889 49.3502609 14.231zM53.9782957 11.5108333C53.9782957 10.5431 53.5646609 8.92134444 51.7548522 8.92134444 50.1001043 8.92134444 49.427687 10.4647778 49.3243826 11.5108333L53.9782957 11.5108333zM71.7589565.106611111L71.7589565 15.5388333C71.7589565 16.9771333 71.8109217 17.8137667 71.8624696 18.677L68.3716174 18.677 68.2167652 16.8200667 68.1391304 16.8200667C67.3634087 18.2321889 65.8121739 18.9647444 64.1830957 18.9647444 61.1837217 18.9647444 58.7789217 17.0556667 58.7789217 13.0802333 58.7532522 8.7647 61.4164174 6.25374444 64.4416696 6.25374444 66.0189913 6.25374444 67.2081391 6.82902222 67.7770435 7.69225556L67.8288 7.69225556 67.8288.106611111 71.7589565.106611111 71.7589565.106611111zM67.8290087 11.9816111C67.8290087 11.7724 67.8290087 11.4846556 67.7772522 11.2494778 67.5445565 10.203 66.6912 9.31401111 65.4759652 9.31401111 63.6661565 9.31401111 62.7612522 10.9357667 62.7612522 12.9497667 62.7612522 15.1204111 63.8212174 16.4806 65.450087 16.4806 66.5878957 16.4806 67.5186783 15.6959 67.7513739 14.5713111 67.8031304 14.2835667 67.8290087 13.9696444 67.8290087 13.6557222L67.8290087 11.9816111 67.8290087 11.9816111z"/>
  </g>
  <path d="M100.940739,0 L77.0592608,0 C76.4764783,0 76,0.47689461 76,1.05925226 L76,24.9407477 C76,25.5233155 76.4764783,26 77.0592608,26 L100.940739,26 C101.523522,26 102,25.5233155 102,24.9407477 L102,1.05904217 C102,0.476684524 101.523522,0 100.940739,0 Z M84.3751353,21.2129865 L80.7664636,21.2129865 L80.7664636,9.57948917 L84.3751353,9.57948917 L84.3751353,21.2129865 Z M82.6001067,8.29145355 C81.4603824,8.29145355 80.7244461,7.48430417 80.7244461,6.48723729 C80.7244461,5.46643072 81.4841222,4.68281095 82.6475864,4.68281095 C83.8108405,4.68281095 84.5234571,5.46643072 84.5467768,6.48723729 C84.5469869,7.48430417 83.8110506,8.29145355 82.6001067,8.29145355 Z M97.7581247,21.214247 L94.1490328,21.214247 L94.1490328,14.9973901 C94.1490328,13.5017898 93.6267554,12.4807731 92.320852,12.4807731 C91.323777,12.4807731 90.7304902,13.1692241 90.4693515,13.8339353 C90.374392,14.0713322 90.3506521,14.4038979 90.3506521,14.7362535 L90.3506521,21.2121462 L86.7417702,21.2121462 L86.7417702,13.5255295 C86.7417702,12.0774085 86.6942905,10.6242455 86.6468107,9.57948917 L90.2151457,9.57948917 L90.2115742,11.4364369 L90.335946,11.4364369 C90.8105335,10.6765569 91.6559253,9.56079154 93.6032257,9.56079154 C95.9772136,9.56079154 97.7581247,11.1513506 97.7581247,14.5702858 L97.7581247,21.214247 L97.7581247,21.214247 Z"/>
</svg>
