<svg xmlns="http://www.w3.org/2000/svg" width="49" height="49" viewBox="0 0 49 49">
  <g fill="none" fill-rule="evenodd">
    <rect width="47" height="47" x="1" y="1" stroke="#6C6C6C" stroke-width="2" rx="17"/>
    <path fill="#6C6C6C" d="M23.7280445,15.5240222 C24.4141684,16.5331776 24.7593879,17.7350929 24.7593879,19.1388393 C24.7593879,20.5834055 24.4141684,21.7467688 23.7194141,22.6243938 C23.3267268,23.1164988 22.754957,23.5677839 21.9976316,23.9737138 C23.1476442,24.415928 24.0128507,25.1121318 24.6018815,26.064593 C25.1865971,27.0147864 25.4778761,28.1736143 25.4778761,29.5342731 C25.4778761,30.9357518 25.1456023,32.196629 24.4745818,33.3078337 C24.0495302,34.0448573 23.5165976,34.6684926 22.880099,35.1719364 C22.1616109,35.7502164 21.315823,36.1448075 20.3362625,36.3602452 C19.3567021,36.5756828 18.2973096,36.68 17.1516122,36.68 L7,36.68 L7,13 L17.8873614,13 C20.636172,13.0453553 22.5801896,13.8844283 23.7280445,15.5240222 L23.7280445,15.5240222 Z M11.7787611,17.16 L11.7787611,22.28 L17.1474665,22.28 C18.1032187,22.28 18.8834678,22.0866667 19.4839847,21.7022222 C20.078158,21.32 20.380531,20.64 20.380531,19.6666667 C20.380531,18.5844444 19.9851202,17.8711111 19.1942987,17.5222222 C18.5113165,17.2822222 17.6422586,17.16 16.5850106,17.16 L11.7787611,17.16 L11.7787611,17.16 Z M11.7787611,25.8 L11.7787611,32.2 L17.0634298,32.2 C18.0077907,32.2 18.7436834,32.0597701 19.2690232,31.7793103 C20.2238076,31.2551724 20.699115,30.2574713 20.699115,28.783908 C20.699115,27.5310345 20.240485,26.6758621 19.3148862,26.2068966 C18.7958004,25.9471264 18.0703311,25.8091954 17.1384783,25.8 L11.7787611,25.8 L11.7787611,25.8 Z M38.715901,18.9546025 C39.8615637,19.5102357 40.803553,20.3886433 41.5439906,21.5875198 C42.2207802,22.6457589 42.6557077,23.8723019 42.8530163,25.2671486 C42.9675826,26.0856124 43.0163793,27.2637392 42.9951633,28.8015289 L31.061177,28.8015289 C31.1311898,30.588316 31.6976563,31.8402198 32.7754279,32.5572402 C33.4310015,33.0045134 34.2181142,33.2258444 35.1388876,33.2258444 C36.1105792,33.2258444 36.9061783,32.9560972 37.5150768,32.4119917 C37.8502892,32.1168836 38.1430697,31.7088045 38.3976614,31.1854488 L42.770274,31.1854488 C42.6557077,32.2413823 42.1253083,33.3134546 41.183319,34.4062767 C39.7172951,36.1354256 37.6614671,37 35.0221997,37 C32.8411974,37 30.9147868,36.2714519 29.2535759,34.8097448 C27.581757,33.3503431 26.7522124,30.9733398 26.7522124,27.6856515 C26.7522124,24.5985444 27.5032579,22.2353743 29.005349,20.586919 C30.5116833,18.9453804 32.463553,18.12 34.8630799,18.12 C36.2887934,18.12 37.5744816,18.3966638 38.715901,18.9546025 L38.715901,18.9546025 Z M32.3455194,23.31511 C31.7452554,24.0051834 31.3661412,24.9417115 31.2123894,26.12 L38.539823,26.12 C38.4640002,24.8619071 38.0827799,23.9089487 37.4087992,23.2564303 C36.7263938,22.6062592 35.8860241,22.28 34.8834779,22.28 C33.7945778,22.28 32.9457834,22.6250367 32.3455194,23.31511 L32.3455194,23.31511 Z M29.619469,17.16 L39.1769912,17.16 L39.1769912,14.6 L29.619469,14.6 L29.619469,17.16 Z"/>
  </g>
</svg>
