<svg xmlns="http://www.w3.org/2000/svg" width="49" height="49" viewBox="0 0 49 49">
  <g fill="none" fill-rule="evenodd">
    <rect width="47" height="47" x="1" y="1" stroke="#6C6C6C" stroke-width="2" rx="17"/>
    <path fill="#6C6C6C" d="M39,21 L39,32.6517465 C39,33.2976648 38.7467466,33.8500997 38.2394452,34.3101319 C37.7323425,34.770164 37.1227466,35 36.4108562,35 L36.4108562,35 L12.5893425,35 C11.8772534,35 11.2676575,34.770164 10.7605548,34.3101319 C10.2534521,33.8502798 10,33.2976648 10,32.6517465 L10,32.6517465 L10,21 C10.474726,21.4793052 11.0195685,21.9051142 11.6345274,22.2767063 C15.5399932,24.6833194 18.2209041,26.3710647 19.6774589,27.3395819 C20.2924178,27.7504407 20.7913767,28.0710582 21.1743356,28.3007141 C21.5572945,28.5307301 22.0671781,28.7654294 22.703589,29.0051721 C23.34,29.2449148 23.9335068,29.364696 24.4837123,29.364696 L24.4837123,29.364696 L24.5164863,29.364696 C25.0666918,29.364696 25.66,29.2449148 26.296411,29.0051721 C26.9330205,28.7654294 27.4427055,28.5307301 27.8256644,28.3007141 C28.2088219,28.0710582 28.7077808,27.7504407 29.3227397,27.3395819 C31.1564932,26.1361853 33.8431644,24.44844 37.3815616,22.2767063 C37.9967192,21.8952075 38.536,21.4693985 39,21 L39,21 Z M36.4106575,14 C37.1116233,14 37.718637,14.2335986 38.2311027,14.700979 C38.7435685,15.1683593 39,15.7302044 39,16.386514 C39,17.1720718 38.7358219,17.9228461 38.2068699,18.6384708 C37.6781164,19.3544616 37.0202534,19.966102 36.2326849,20.4730257 C32.1762603,23.0684237 29.6514726,24.6842087 28.6591164,25.3205636 C28.5512603,25.3903137 28.3218425,25.5417134 27.9712603,25.7754951 C27.6206781,26.0092768 27.3294863,26.1983892 27.0974863,26.3424661 C26.8654863,26.486543 26.5850205,26.6480117 26.256089,26.8270552 C25.9271575,27.0057325 25.6166986,27.1402897 25.3255068,27.2294453 C25.0341164,27.3191501 24.7643767,27.3636364 24.5162877,27.3636364 L24.5162877,27.3636364 L24.4837123,27.3636364 C24.2356233,27.3636364 23.9658836,27.3191501 23.6744932,27.2294453 C23.3833014,27.1402897 23.0730411,27.0059156 22.743911,26.8270552 C22.4147808,26.6481948 22.1343151,26.486543 21.9023151,26.3424661 C21.6705137,26.1983892 21.3791233,26.0092768 21.0285411,25.7754951 C20.6779589,25.5418965 20.4487397,25.3903137 20.3408836,25.3205636 C19.3590548,24.6843918 17.9458014,23.7770917 16.1009247,22.5988465 C14.2560479,21.4206013 13.150274,20.7119334 12.7834041,20.4733918 C12.1146164,20.0558068 11.4833699,19.4815129 10.8900616,18.7506934 C10.2967534,18.0198738 10,17.3410464 10,16.7145773 C10,15.9390884 10.2238562,15.2926646 10.6715685,14.7754889 C11.1192808,14.2584963 11.7584726,14 12.5891438,14 L12.5891438,14 Z"/>
  </g>
</svg>
