<svg xmlns="http://www.w3.org/2000/svg" width="49" height="49" viewBox="0 0 49 49">
  <g fill="none" fill-rule="evenodd">
    <rect width="47" height="47" x="1" y="1" stroke="#6C6C6C" stroke-width="2" rx="17"/>
    <path fill="#6C6C6C" d="M10,24.8678576 C10,31.4356355 14.1543019,37.0085722 19.9162037,38.9745246 C20.641671,39.1114294 20.9060438,38.6523421 20.9060438,38.2580563 C20.9060438,37.904842 20.8935818,36.9702388 20.8864606,35.7298817 C16.8532183,36.6279769 16.0022407,33.7365483 16.0022407,33.7365483 C15.342644,32.0188498 14.3919703,31.5615879 14.3919703,31.5615879 C13.0754474,30.6388498 14.4916664,30.6580164 14.4916664,30.6580164 C15.9470518,30.7629768 16.7125756,32.1904371 16.7125756,32.1904371 C18.0068449,34.4621435 20.1066945,33.8059134 20.9327481,33.4253181 C21.0644894,32.4642466 21.43924,31.8098419 21.8531569,31.4374609 C18.6335062,31.0623418 15.2482888,29.7873021 15.2482888,24.0902385 C15.2482888,22.466548 15.8135302,21.1394844 16.7410602,20.0999209 C16.5924062,19.7238892 16.0948157,18.2124605 16.8834832,16.1661906 C16.8834832,16.1661906 18.1012002,15.765516 20.870438,17.6894843 C22.0276252,17.3600002 23.2675957,17.1948018 24.5004451,17.1893256 C25.7324043,17.1948018 26.9723748,17.3600002 28.1313423,17.6894843 C30.8987998,15.765516 32.1147365,16.1661906 32.1147365,16.1661906 C32.9051843,18.2124605 32.4075938,19.7238892 32.2589398,20.0999209 C33.1882501,21.1394844 33.7490408,22.466548 33.7490408,24.0902385 C33.7490408,29.8009926 30.3593726,31.0577784 27.1290402,31.4265085 C27.6497744,31.8855958 28.1126493,32.7928181 28.1126493,34.179207 C28.1126493,36.1670642 28.0957365,37.7706754 28.0957365,38.2580563 C28.0957365,38.6559928 28.3565487,39.1178183 29.0926978,38.9726992 C34.8492587,37.003096 39,31.4347228 39,24.8678576 C39,16.6563097 32.50729,10 24.4986648,10 C16.49271,10 10,16.6563097 10,24.8678576 Z"/>
  </g>
</svg>
