<svg xmlns="http://www.w3.org/2000/svg" width="49" height="49" viewBox="0 0 49 49">
  <g fill="none" fill-rule="evenodd">
    <rect width="47" height="47" x="1" y="1" stroke="#6C6C6C" stroke-width="2" rx="17"/>
    <path fill="#6C6C6C" d="M11.3186813,18.2417582 L17.0549451,18.2417582 L17.0549451,38 L11.3186813,38 L11.3186813,18.2417582 Z M14.3295229,15.6923077 L14.2896085,15.6923077 C12.2938905,15.6923077 11,14.2178547 11,12.350699 C11,10.4453639 12.3321418,9 14.3677741,9 C16.4017434,9 17.6523933,10.4417278 17.6923077,12.3452448 C17.6923077,14.2124005 16.4017434,15.6923077 14.3295229,15.6923077 L14.3295229,15.6923077 Z M40,38 L33.498816,38 L33.498816,27.8718722 C33.498816,25.2213313 32.4818711,23.4137252 30.2456298,23.4137252 C28.535156,23.4137252 27.583932,24.6329371 27.1411804,25.8115701 C26.9751486,26.2321152 27.0010911,26.8205094 27.0010911,27.4107481 L27.0010911,38 L20.5604396,38 C20.5604396,38 20.6434555,20.0604314 20.5604396,18.4298968 L27.0010911,18.4298968 L27.0010911,21.5009828 C27.3815807,20.1581896 29.4396836,18.2417582 32.7240008,18.2417582 C36.7986987,18.2417582 40,21.0583037 40,27.1174733 L40,38 L40,38 Z"/>
  </g>
</svg>
