<svg xmlns="http://www.w3.org/2000/svg" width="49" height="49" viewBox="0 0 49 49">
  <g fill="none" fill-rule="evenodd">
    <rect width="47" height="47" x="1" y="1" stroke="#6C6C6C" stroke-width="2" rx="17"/>
    <path fill="#6C6C6C" fill-rule="nonzero" d="M15.063,-1.34292577e-12 C19.0574686,-1.34292577e-12 22.8061477,1.54737452 25.6293461,4.35737376 C28.4476754,7.16263272 30,10.8992259 30,14.87439 C30,22.9643774 23.4657626,29.5699276 15.3788493,29.737971 L15.063,29.74125 L14.4868164,29.7302003 C12.3393862,29.6478025 10.2371843,29.1057711 8.32426921,28.1442947 L7.91730859,27.9318587 L1.2579073,29.6713054 C0.731940272,29.8086848 0.251746063,29.3614775 0.324969356,28.8441458 L0.345308021,28.74645 L2.12213675,22.2968617 L1.85147537,21.8083942 C0.876408723,19.9685229 0.300098635,17.9446293 0.159509105,15.8587999 L0.13606544,15.4109329 L0.126135596,14.86704 C0.126135596,6.67193381 6.83120381,-1.34292577e-12 15.063,-1.34292577e-12 Z M9.586875,7.74744 C9.32721,7.74744 8.911605,7.843425 8.55549,8.227425 C8.19924,8.611545 7.20492,9.542115 7.20492,11.44029 C7.20492,13.330845 8.59257,15.16245 8.78547,15.4209 C8.97837,15.6795 11.464155,19.68975 15.3894,21.2334 C18.6543,22.51845 19.32225,22.25985 20.0271,22.1934 C20.73945,22.12695 22.31265,21.26295 22.63905,20.3619 C22.9581,19.46085 22.9581,18.6927 22.86165,18.53025 C22.7652,18.36765 22.50555,18.2718 22.1196,18.07965 C21.7338,17.88765 19.8342,16.95705 19.4781,16.82415 C19.12185,16.69125 18.8622,16.63215 18.6099,17.01615 C18.3501,17.40015 17.6082,18.2643 17.38545,18.5229 C17.16285,18.78135 16.9329,18.8109 16.54695,18.6189 C16.16115,18.4269 14.914575,18.02055 13.43802,16.7061 C12.287865,15.68685 11.50875,14.423865 11.28603,14.039865 C11.063445,13.65588 11.26386,13.44891 11.45676,13.257045 C11.62737,13.08711 11.842575,12.80646 12.035595,12.584925 C12.228495,12.363375 12.29526,12.200925 12.421395,11.942355 C12.54753,11.683905 12.48816,11.462355 12.39171,11.270355 C12.29526,11.078235 11.538435,9.180195 11.19711,8.41956 C10.907625,7.776975 10.603365,7.76214 10.328925,7.75479 C10.10634,7.74744 9.846675,7.74744 9.586875,7.74744 Z" transform="translate(10 10)"/>
  </g>
</svg>
