<svg xmlns="http://www.w3.org/2000/svg" width="49" height="49" viewBox="0 0 49 49">
  <g fill="none" fill-rule="evenodd">
    <rect width="49" height="49" fill="#1C1C1C" rx="17"/>
    <path fill="#FFF" d="M24.5042089,10.0002406 C32.4978064,10.0002406 39,16.5042682 39,24.5001203 C39,32.4957318 32.4978064,39 24.5042089,39 C21.5555537,39 18.8199905,38.1221307 16.5276877,36.6048049 L16.5276877,36.6048049 L10.9543445,38.3860448 L12.7610572,32.9987805 C11.0226494,30.6117651 10,27.670939 10,24.4998797 C10,16.5040276 16.5021936,10 24.4957911,10 L24.4957911,10.0002406 Z M18.9361285,17 C18.3875242,17 17.8139184,17.1620476 17.4679452,17.5203342 C17.0462532,17.9554309 16,18.9705763 16,21.0523948 C16,23.1342134 17.5017568,25.1476493 17.7041499,25.4293665 C17.9151149,25.7106023 20.6319446,30.0447144 24.8502929,31.8111059 C28.1490622,33.1932061 29.1279305,33.065109 29.8786898,32.9030614 C30.9754223,32.6642036 32.3507429,31.8448156 32.6967161,30.8554342 C33.0426892,29.8655711 33.0426892,29.0209008 32.9412545,28.8417575 C32.8527076,28.6850071 32.6283451,28.5872488 32.2911374,28.4221796 L32.1397779,28.3469464 C32.0901671,28.3218482 32.0180141,28.2855323 31.9286777,28.2407632 L31.614477,28.083861 C30.8452374,27.7009404 29.5764028,27.0776747 29.2796063,26.9732736 C28.8998216,26.8283216 28.5371808,26.8796086 28.2504969,27.2891822 C27.8454726,27.8608034 27.4490202,28.4410929 27.1282867,28.7907113 C26.8751763,29.0637604 26.4615801,29.0979517 26.115845,28.9527589 C25.6517696,28.7567607 24.352644,28.2956594 22.7494526,26.8538447 C21.5091401,25.7363661 20.665518,24.3458385 20.4209795,23.9278375 C20.1762029,23.501409 20.3957399,23.2536422 20.5895611,23.0234527 C20.8005261,22.7588311 21.0029192,22.5712604 21.2138842,22.3237344 C21.4248493,22.0764492 21.5429516,21.9483521 21.6779597,21.6582074 C21.8215398,21.3767309 21.7201051,21.0865862 21.6189086,20.8732515 C21.517712,20.6599169 20.67409,18.5780984 20.3281168,17.7336689 C20.0497668,17.0597144 19.8388017,17.0341913 19.4171098,17.0168549 C19.2735297,17.0084274 19.1135201,17 18.9361285,17 Z"/>
  </g>
</svg>
