<svg xmlns="http://www.w3.org/2000/svg" width="94" height="104" viewBox="0 0 94 104">
  <g fill-rule="evenodd">
    <g font-family="Comfortaa-Bold, Comfortaa" font-weight="bold" transform="translate(0 42)">
      <text font-size="20">
        <tspan x="0" y="20">Software </tspan> <tspan x="0" y="39">Engineer</tspan>
      </text>
      <text font-size="15">
        <tspan x="0" y="58">2012-2015</tspan>
      </text>
    </g>
    <g fill-rule="nonzero">
      <path d="M46,27.8787683 C46,26.1376492 44.8699453,24.6671924 43.3046875,24.1132972 L43.3046875,10.2597655 L46,9.15705665 L23,0 L0,9.15705665 L23,18.3142024 L40.609375,11.3336785 L40.609375,24.1132972 C39.0441172,24.6671924 37.9140625,26.1376492 37.9140625,27.8787683 C37.9140625,29.4727884 38.8628125,30.841078 40.2231367,31.4876903 L37.9838711,38.1537786 L40.5396563,39 L41.9570312,34.7805719 L43.3744062,39 L45.9301914,38.1537786 L43.6909258,31.4876903 C45.05125,30.8411672 46,29.4728775 46,27.8787683 Z"/>
      <path d="M23,20.7482569 L11,16 L11,19.4305035 C11,23.1759048 16.1588444,26 23,26 C29.8411556,26 35,23.1759048 35,19.4305035 L35,16 L23,20.7482569 Z"/>
    </g>
  </g>
</svg>
