<svg xmlns="http://www.w3.org/2000/svg" width="130" height="130" viewBox="0 0 130 130">
  <g fill-rule="evenodd" transform="translate(18 16)">
    <g font-family="Comfortaa-Bold, Comfortaa" font-weight="bold" transform="translate(0 45)">
      <text font-size="20">
        <tspan x="0" y="20.226">Software </tspan> <tspan x="0" y="39.226">Engineer</tspan>
      </text>
      <text font-size="15">
        <tspan x="0" y="60.387">2012-2015</tspan>
      </text>
    </g>
    <g fill-rule="nonzero">
      <path d="M46,29.3084488 C46,27.4780414 44.8699453,25.9321767 43.3046875,25.3498766 L43.3046875,10.7859073 L46,9.62664929 L23,0 L0,9.62664929 L23,19.2533923 L40.609375,11.9148928 L40.609375,25.3498766 C39.0441172,25.9321767 37.9140625,27.4780414 37.9140625,29.3084488 C37.9140625,30.9842134 38.8628125,32.4226718 40.2231367,33.1024437 L37.9838711,40.1103827 L40.5396563,41 L41.9570312,36.564191 L43.3744062,41 L45.9301914,40.1103827 L43.6909258,33.1024437 C45.05125,32.4227655 46,30.9843071 46,29.3084488 Z"/>
      <path d="M23,21.8122701 L11,16.8205128 L11,20.4269396 C11,24.3644128 16.1588444,27.3333333 23,27.3333333 C29.8411556,27.3333333 35,24.3644128 35,20.4269396 L35,16.8205128 L23,21.8122701 Z"/>
    </g>
  </g>
</svg>
