<svg xmlns="http://www.w3.org/2000/svg" width="230" height="230" viewBox="0 0 230 230">
  <defs>
    <filter id="fl-a">
      <feColorMatrix in="SourceGraphic" values="0 0 0 0 0.847000 0 0 0 0 0.847000 0 0 0 0 0.847000 0 0 0 1.000000 0"/>
    </filter>
  </defs>
  <g fill="none" fill-rule="evenodd" filter="url(#fl-a)" transform="translate(-605 -914)">
    <path fill="#000" d="M0,115 C0,51.4872651 51.4872651,0 115,0 C178.513163,0 230,51.4872651 230,115 C230,178.513163 178.513163,230 115,230 C51.4872651,230 0,178.513163 0,115 Z M131.370651,66.5360047 C128.237302,63.4027628 123.158047,63.4027628 120.024698,66.5360047 C116.891349,69.6692465 116.891349,74.7493581 120.024698,77.8826 L143.769256,101.627907 L61.5116279,101.627907 C57.0805442,101.627907 53.4883721,105.220186 53.4883721,109.651163 C53.4883721,114.08214 57.0805442,117.674419 61.5116279,117.674419 L145.458419,117.674419 L119.659907,147.158279 C116.741581,150.492744 117.079628,155.562372 120.414093,158.479628 C123.748558,161.397953 128.818186,161.059907 131.735442,157.725442 L169.177302,114.934744 C171.958698,111.755395 171.799302,106.964977 168.812512,103.978186 L131.370651,66.5360047 Z" transform="translate(605 914)"/>
  </g>
</svg>
