<svg xmlns="http://www.w3.org/2000/svg" width="130" height="130" viewBox="0 0 130 130">
  <g fill="none" fill-rule="evenodd">
    <g fill="#000" fill-rule="nonzero" transform="translate(19 19)">
      <path d="M25.8553164 3.99877713L24.7670193 2.56732381 25.8553164 1.1360477C26.0917066.8254786 26.0321005.381732501 25.7221313.144884793 25.5986742.0506064681 25.4477135-.000342814488 25.2925078 0L19.7210211 0C19.3281871-.00220357089 19.0066327.312707299 19 .706301583L19 7 20.4149807 7 20.4149807 5.13924359 25.2925078 5.13924359C25.6841037 5.13835752 26.0008825 4.81954792 26 4.42719414 25.9996444 4.27239693 25.9487935 4.12194148 25.8553164 3.99877713zM1.17445545 24.0000155C.529207921 23.996793.00336633663 24.4972682 0 25.1178385 0 25.1227908 0 25.1277432 0 25.1326956L0 40 10 40 10 24.0000155 1.17445545 24.0000155zM3.76237624 35.809532C3.76237624 36.230293 3.40772277 36.5714352 2.97029703 36.5714352 2.53287129 36.5714352 2.17821782 36.230293 2.17821782 35.809532L2.17821782 34.172297C2.17821782 33.751536 2.53287129 33.4103938 2.97029703 33.4103938 3.40772277 33.4103938 3.76237624 33.751536 3.76237624 34.172297L3.76237624 35.809532zM3.76237624 29.432592C3.76237624 29.8533531 3.40772277 30.1944952 2.97029703 30.1944952 2.53287129 30.1944952 2.17821782 29.8533531 2.17821782 29.432592L2.17821782 27.7952618C2.17821782 27.3745007 2.53287129 27.0333585 2.97029703 27.0333585 3.40772277 27.0333585 3.76237624 27.3745007 3.76237624 27.7952618L3.76237624 29.432592zM7.82178218 35.809532C7.82178218 36.230293 7.46712871 36.5714352 7.02970297 36.5714352 6.59227723 36.5714352 6.23762376 36.230293 6.23762376 35.809532L6.23762376 34.172297C6.23762376 33.751536 6.59227723 33.4103938 7.02970297 33.4103938 7.46712871 33.4103938 7.82178218 33.751536 7.82178218 34.172297L7.82178218 35.809532zM7.82178218 29.432592C7.82178218 29.8533531 7.46712871 30.1944952 7.02970297 30.1944952 6.59227723 30.1944952 6.23762376 29.8533531 6.23762376 29.432592L6.23762376 27.7952618C6.23762376 27.3745007 6.59227723 27.0333585 7.02970297 27.0333585 7.46712871 27.0333585 7.82178218 27.3745007 7.82178218 27.7952618L7.82178218 29.432592zM19.0195817 14L12 20.0701395 12 40 15.2026144 40 15.2026144 32.2501395C15.192915 31.8649302 15.4922222 31.5447442 15.8711373 31.5347907 15.8834902 31.5345116 15.8958431 31.5345116 15.9081961 31.5348837L22.2006928 31.5348837C22.5717386 31.5253953 22.8801046 31.8234419 22.8894379 32.2005581 22.8898039 32.2171163 22.8897124 32.2335814 22.8888889 32.2501395L22.8888889 40 26 40 26 20.0632558 19.0195817 14zM22.2006928 27.3488372L15.8668366 27.3488372C15.4625752 27.3488372 15.1348105 27.0156279 15.1348105 26.6046512 15.1348105 26.1936744 15.4625752 25.8604651 15.8668366 25.8604651L22.2006928 25.8604651C22.6049542 25.8604651 22.932719 26.1936744 22.932719 26.6046512 22.932719 27.0156279 22.6049542 27.3488372 22.2006928 27.3488372zM35.8743581 24C35.8693581 24 35.8643582 24 35.8593582 24L27 24 27 40 36.9999637 40 36.9999637 25.1326667C37.0049267 24.512 36.500892 24.0049524 35.8743581 24zM30.9422788 35.8095238C30.9422788 36.2302857 30.5978583 36.5714286 30.1730537 36.5714286 29.7482491 36.5714286 29.4038286 36.2302857 29.4038286 35.8095238L29.4038286 34.1722857C29.4038286 33.7515238 29.7482491 33.410381 30.1730537 33.410381 30.5978583 33.410381 30.9422788 33.7515238 30.9422788 34.1722857L30.9422788 35.8095238zM30.9422788 29.4325714C30.9422788 29.8533333 30.5978583 30.1944762 30.1730537 30.1944762 29.7482491 30.1944762 29.4038286 29.8533333 29.4038286 29.4325714L29.4038286 27.7952381C29.4038286 27.3744762 29.7482491 27.0333333 30.1730537 27.0333333 30.5978583 27.0333333 30.9422788 27.3744762 30.9422788 27.7952381L30.9422788 29.4325714zM34.7884045 35.8095238C34.7884045 36.2302857 34.443984 36.5714286 34.0191794 36.5714286 33.5943748 36.5714286 33.2499542 36.2302857 33.2499542 35.8095238L33.2499542 34.1722857C33.2499542 33.7515238 33.5943748 33.410381 34.0191794 33.410381 34.443984 33.410381 34.7884045 33.7515238 34.7884045 34.1722857L34.7884045 35.8095238zM34.7884045 29.4325714C34.7884045 29.8533333 34.443984 30.1944762 34.0191794 30.1944762 33.5943748 30.1944762 33.2499542 29.8533333 33.2499542 29.4325714L33.2499542 27.7952381C33.2499542 27.3744762 33.5943748 27.0333333 34.0191794 27.0333333 34.443984 27.0333333 34.7884045 27.3744762 34.7884045 27.7952381L34.7884045 29.4325714z"/>
      <path d="M19.0028352,9 L8,18.3848256 L9.39050357,19.9968401 L18.5036456,12.2604154 C18.7914917,12.0160518 19.2149476,12.0164348 19.5023132,12.2614687 L28.5775883,20 L30,18.380421 L19.0028352,9 Z"/>
      <rect width="4" height="7" x="16" y="33"/>
    </g>
    <text fill="#000" font-family="Comfortaa-Bold, Comfortaa" font-size="16" font-weight="bold">
      <tspan x="19" y="81">Universidad </tspan> <tspan x="19" y="96">Politécnica </tspan> <tspan x="19" y="111">de Tecámac</tspan>
    </text>
  </g>
</svg>
