<svg xmlns="http://www.w3.org/2000/svg" width="107" height="107" viewBox="0 0 107 107">
  <path d="M54 13C55.1045576 13 56 12.0990317 56 10.9876575L56 2.01234245C56 .900968337 55.1045576 0 54 0 52.8954424 0 52 .900968337 52 2.01234245L52 10.9876575C52.0001986 12.0990317 52.8956409 13 54 13zM104.939323 72.6266216L101.208253 68.9533283C99.8809554 67.6445584 98.1119946 66.9236066 96.2270605 66.9236066 95.0218184 66.9236066 93.8648111 67.2196896 92.8395059 67.7743795L85.8085423 60.8410669 86.1510098 60.5033666C89.0033672 57.6816745 89.0023186 53.0965282 86.1508001 50.2843604 85.1317864 49.2764358 83.8602738 48.6043479 82.4742558 48.3215162 82.665098 47.6711687 82.7655524 46.9899707 82.7655524 46.2928297 82.7655524 44.3558668 82.0034417 42.5396147 80.623925 41.183223 79.6047016 40.1752984 78.3333987 39.5032106 76.9473807 39.2203788 77.1382229 38.5700313 77.2386773 37.8890403 77.2386773 37.1916923 77.2386773 35.2545223 76.4765666 33.4384773 75.094743 32.0800152 74.0511924 31.0509713 72.7683551 30.3995886 71.4213445 30.1223472 72.1419312 27.669413 71.5262028 24.9096291 69.5716428 22.9766002 67.9446603 21.3771306 65.7369721 20.689721 63.6093957 20.912508L49.6768637 18.3088406C47.5520137 17.9108884 44.8984677 17.6477265 43.2234601 19.1560936 43.1177628 19.2513371 43.0099684 19.3608672 42.9038517 19.4828202 40.3067196 18.5481917 37.2775709 19.104745 35.1978099 21.155793 33.8180835 22.5163257 33.05807 24.3317495 33.05807 26.2676772 33.05807 26.9650252 33.1581049 27.6460162 33.3487374 28.2965707 31.9641874 28.5791954 30.6943525 29.2504551 29.6786943 30.2550669 28.2962416 31.6143573 27.5339212 33.4277106 27.5324532 35.3613607 27.531824 36.0603652 27.6322783 36.7436337 27.8239595 37.3958446 26.4387804 37.6778482 25.1681066 38.3478655 24.1493026 39.3524774 22.7668499 40.7159088 22.0055781 42.5323679 22.0055781 44.4672603 22.0055781 45.9493319 22.4537428 47.3612132 23.2842211 48.5538275 22.2356373 48.9047791 21.2751346 49.4888702 20.4708709 50.2820829 17.616626 53.0965282 17.6155774 57.6818815 20.4727584 60.5077147L20.8139675 60.8431374 13.7821651 67.7729301C11.1688847 66.5581614 7.94910351 67.0132597 5.79258622 69.1396743L2.05920872 72.8152451C.73128229 74.1246362 0 75.8713191 0 77.7333295 0 79.5955469.73128229 81.3424369 2.05920872 82.652035L6.71848565 87.2464985C7.54372104 88.0604163 8.88108473 88.0595881 9.70527153 87.2448421 10.5296681 86.4300961 10.5288292 85.1097314 9.7035938 84.2960206L5.04431687 79.7015571C4.51541124 79.1799954 4.22411468 78.4809909 4.22411468 77.7335365 4.22411468 76.9862892 4.51541124 76.2874918 5.04305857 75.7671724L8.77664579 72.0913945C9.70946587 71.1714666 11.1372175 71.0343988 12.221453 71.6743937 12.2977899 71.7876506 12.3860807 71.8953172 12.4871642 71.9953228 12.6681497 72.174422 12.8747207 72.3116969 13.0940844 72.4121167L34.5046961 93.5195252C34.6064087 93.7383782 34.7460801 93.944394 34.9283239 94.1245284 35.1057443 94.2999007 35.3081209 94.4355192 35.5228709 94.5353178 35.9756493 95.0407295 36.2258414 95.6863147 36.2258414 96.3749666 36.2258414 97.1224211 35.9345449 97.8212185 35.4056392 98.3427801L31.6758269 102.020836C30.5737654 103.104127 28.7811067 103.10392 27.6824006 102.024148L23.0231237 97.4236804C22.1983078 96.6093485 20.8611538 96.6093485 20.0363378 97.4236804 19.2115219 98.2380123 19.2115219 99.55817 20.0363378 100.372502L24.6989702 104.976283C26.0713566 106.325635 27.8736623 107 29.6768069 107 31.4803709 107 33.2847738 106.324599 34.6588379 104.974005L38.3909571 101.293672C39.7188835 99.9840741 40.4501658 98.2373911 40.4501658 96.3749666 40.4501658 95.0459058 40.0758214 93.7766826 39.3797715 92.6822106L47.2936426 84.8784553C47.3020313 84.8699662 47.31042 84.8614771 47.3190184 84.852988 48.2252044 83.9280908 50.748726 84.1011855 53.1891998 84.2684828 54.9231378 84.3875372 56.8563068 84.5198428 58.7450158 84.3049238L67.4113506 92.8509572C66.8499388 93.8615736 66.5502536 95.002425 66.5502536 96.1904841 66.5502536 98.0508381 67.2815359 99.7964858 68.6094623 101.106084L72.3417913 104.786417C73.6688788 106.095187 75.4378396 106.816139 77.3227737 106.816139 79.2074981 106.816139 80.9764588 106.095394 82.3037561 104.786417L104.940791 82.4642397C106.268718 81.1548486 107 79.4081657 107 77.5459483 107 75.6839379 106.268508 73.9372549 104.939323 72.6266216L104.939323 72.6266216zM48.8904259 22.4063815L58.0523214 24.1184869 52.5684382 29.5305952C51.720134 29.1280879 50.5574643 28.3773206 49.2819671 27.1726974 47.5360752 25.5237426 46.287212 23.6199079 46.1735455 22.43247 46.1733358 22.4318488 46.1733358 22.4312277 46.1733358 22.4306065 46.1733358 22.4303995 46.1731261 22.4301924 46.1731261 22.4299853 46.1649471 22.3446803 46.16285 22.2765605 46.1638985 22.2245907 46.4400955 22.1583343 47.1736847 22.0848312 48.8904259 22.4063815zM38.1827084 24.106478C39.2526832 23.0511386 40.9148981 22.9293926 42.1239152 23.73772 42.8090598 26.5739057 45.2595999 29.1444449 46.3620809 30.1859118 47.1791373 30.9577983 49.8008063 33.2720082 52.4470122 33.9080692 52.8049987 34.4147232 52.9998256 35.0186912 52.9998256 35.6559944 52.9998256 36.4769519 52.6800075 37.2444903 52.0972047 37.8192641 51.5160796 38.3940379 50.7374013 38.710412 49.9044064 38.710412 49.0712018 38.710412 48.2925235 38.3940379 47.7086721 37.8165724L47.7084624 37.8163654 47.7074138 37.8153301 38.1824986 28.4284623C37.601793 27.855966 37.2819749 27.0884277 37.2819749 26.2676772 37.2821847 25.4467196 37.6020027 24.6791813 38.1827084 24.106478L38.1827084 24.106478zM32.6638025 33.2057519C33.2449276 32.6311851 34.022767 32.314604 34.8545036 32.314604 35.6872888 32.314604 36.4676448 32.6318063 37.0525448 33.2086506L44.7223056 40.7658081C45.9300644 41.9600787 45.9300644 43.9034602 44.7265 45.0935898 44.1422291 45.6681565 43.3608245 45.9845306 42.5263616 45.9845306 41.6918987 45.9845306 40.9104941 45.6681565 40.3287398 45.0960744L40.3285301 45.0958674 34.509939 39.3524774C34.5009212 39.3435742 34.4910645 39.3352921 34.481837 39.3261819L32.6614956 37.5298067C32.0774345 36.9537906 31.7559387 36.1848029 31.7565669 35.3644665 31.7574067 34.5468217 32.0778539 33.781768 32.6638025 33.2057519L32.6638025 33.2057519zM27.1344108 42.3031624C27.7159553 41.7298379 28.4954725 41.414085 29.3297257 41.414085 30.1570582 41.414085 30.9298644 41.7252828 31.5088924 42.2886688L37.3453094 48.0482087C37.9272734 48.6204979 38.2479303 49.3872081 38.2479303 50.2071304 38.2479303 51.0268456 37.9272734 51.7935558 37.3430025 52.3681225 36.7616677 52.9412399 35.9829894 53.2569928 35.1502042 53.2569928 34.3161607 53.2569928 33.5349659 52.9404117 32.9527922 52.3681225L30.8369599 50.2816688C30.8365405 50.2810476 30.8359113 50.2806335 30.8354919 50.2802194L27.1346205 46.630737C26.5511885 46.0553421 26.2299025 45.2867684 26.2299025 44.4668462 26.2299025 43.6471309 26.5511885 42.8783503 27.1344108 42.3031624L27.1344108 42.3031624zM23.4559791 53.2325608C24.0400402 52.6565447 24.8206059 52.3393424 25.6538106 52.3393424 26.4868055 52.3393424 27.2671615 52.6563376 27.8510129 53.2319396L29.9697812 55.3212921C30.5519549 55.8935813 30.8724021 56.6602915 30.8724021 57.4802137 30.8724021 58.300136 30.5517452 59.0666391 29.9653771 59.6434835 29.384252 60.2180502 28.6055738 60.5346313 27.7725788 60.5346313 26.9393742 60.5346313 26.1606959 60.2182573 25.5753765 59.6393424L25.3100848 59.3784581C25.3065196 59.3749382 25.3037933 59.3712113 25.3004379 59.3678985 25.2964532 59.3641715 25.2922589 59.3608587 25.2882743 59.3571318L23.4580763 57.5572368C22.2503175 56.362345 22.2492689 54.4224834 23.4559791 53.2325608zM66.4969856 76.9312136C65.672589 76.1162605 64.3352254 76.1156394 63.5101997 76.9293501L61.6311376 78.7822503C59.8456093 80.5450832 56.610309 80.3231244 53.4815449 80.1088266 50.0839239 79.875687 46.5705393 79.6350937 44.2970001 81.9395722L36.5175574 89.6108148 17.063603 70.4322942 23.9481843 63.6474373C25.0861073 64.3360892 26.3991439 64.7052613 27.7729983 64.7052613 29.7357373 64.7052613 31.5762115 63.9540799 32.9509047 62.5943755 34.3348255 61.2336358 35.0971459 59.4175907 35.0971459 57.4804208 35.0971459 57.4624074 35.0958876 57.444601 35.0958876 57.4265875 35.1141329 57.4267946 35.1323783 57.4278298 35.1506237 57.4278298 37.1106364 57.4278298 38.9496425 56.6789261 40.3262232 55.3214992 41.710144 53.9607594 42.4724644 52.1445074 42.4724644 50.2075445 42.4724644 50.189531 42.4712061 50.1717246 42.4712061 50.1537112 42.4896612 50.1537112 42.5081162 50.1549535 42.526781 50.1549535 44.4861646 50.1549535 46.3262193 49.4068779 47.7120275 48.0442748 49.1506844 46.6216268 49.8622533 44.7486427 49.8486217 42.8795926 49.8674963 42.8797996 49.8863708 42.8808349 49.9052453 42.8808349 51.8679843 42.8806278 53.7082487 42.1296535 55.0850392 40.7678786 56.4647656 39.4073459 57.2247791 37.591922 57.2247791 35.6559944 57.2247791 34.3020874 56.8519027 33.0078111 56.1566917 31.8866294L62.1908716 25.9316333C62.6405043 25.4895792 63.1949954 25.2121307 63.7761205 25.0976315 63.8390355 25.0910059 63.9011117 25.0810674 63.9625587 25.0690584 64.8949594 24.9421361 65.8741268 25.2262102 66.5871638 25.9272852 67.7949225 27.1217629 67.7949225 29.0651443 66.5915678 30.255274L64.75382 32.0622088C64.7477382 32.0682132 64.741237 32.0735966 64.7351552 32.079601L62.6184841 34.1658478C61.793039 34.9795585 61.7922001 36.2999233 62.6165966 37.1146693 63.4412029 37.9296223 64.7783568 37.9302435 65.6033825 37.1165327L67.4484704 35.2973819C67.4488899 35.2969678 67.4493093 35.2965537 67.4497287 35.2961396L67.728652 35.0217969C68.9397662 33.8370506 70.9018761 33.8395353 72.111732 35.0323565 72.6939057 35.6046457 73.0145626 36.3713559 73.0145626 37.1912782 73.0145626 38.0109934 72.6939057 38.7777036 72.1071182 39.3545479L70.2588845 41.183016C70.2586748 41.183223 70.2584651 41.1834301 70.2582554 41.1838442L68.141794 43.2649146C67.3153003 44.0775901 67.312574 45.3979549 68.1357122 46.2137361 68.9588504 47.0297245 70.2960044 47.0322091 71.1224981 46.2197406L73.2486065 44.1291458C73.8297316 43.554372 74.6084098 43.237998 75.4414047 43.237998 76.2746094 43.237998 77.0534974 43.554372 77.6388168 44.1332869 78.2209905 44.7057831 78.5414377 45.4724933 78.5414377 46.2924156 78.5414377 47.1121308 78.2209905 47.878841 77.6354613 48.454443L73.9507381 52.0937798C73.1261319 52.9083188 73.1263416 54.2284765 73.9511576 55.0426014 74.3636704 55.4496638 74.9039007 55.6529879 75.4443408 55.6529879 75.9849906 55.6529879 76.5256403 55.4492497 76.9379434 55.0419802L78.7438143 53.2584422C78.7540905 53.2487108 78.7652054 53.2402217 78.7754816 53.2300762 79.3566067 52.6553024 80.1352849 52.3389283 80.9682799 52.3389283 81.8014845 52.3389283 82.5801628 52.6553024 83.163385 53.2321467 84.3698855 54.4220693 84.3688369 56.3621379 83.163385 57.554338L81.3273149 59.3649998C81.3266858 59.3656209 81.3258469 59.3662421 81.3252178 59.3668632 81.3245886 59.3674844 81.3239595 59.3683126 81.3233303 59.3689337L78.4091064 62.2425957C77.583871 63.0565135 77.5830322 64.3768783 78.407219 65.1916243 78.8197318 65.5993078 79.360801 65.8032532 79.9016605 65.8032532 80.4416811 65.8032532 80.9819114 65.599929 81.3942146 65.1934877L82.8196593 63.7878179 89.6516017 70.5250531 70.199325 89.7066795 63.2295987 82.8338259C63.7155124 82.5253197 64.1804544 82.1625662 64.6168749 81.7316929L66.4948884 79.8798281C67.3205432 79.0663244 67.3213821 77.7459596 66.4969856 76.9312136L66.4969856 76.9312136zM101.955473 79.5135547L79.3184382 101.835732C78.7889034 102.357915 78.0800608 102.645509 77.322564 102.645509 76.5650671 102.645509 75.8562245 102.357915 75.32648 101.835525L71.5941511 98.1551919C71.0652454 97.6338372 70.7739489 96.9360751 70.7739489 96.1904841 70.7739489 95.4451002 71.0652454 94.7473381 71.5941511 94.2257764L94.2311863 71.9035992C94.7609308 71.3812093 95.4695636 71.0936154 96.2272702 71.0936154 96.9847671 71.0936154 97.6936097 71.3812093 98.2246125 71.9048415L101.955683 75.5781348C102.484589 76.0996964 102.775885 76.7982868 102.775885 77.5457412 102.775885 78.2934027 102.484379 78.9922001 101.955473 79.5135547L101.955473 79.5135547zM25.3719416 11.3780908C25.787005 11.7928379 26.3304299 12 26.8738547 12 27.4185462 12 27.9634489 11.7915695 28.3787234 11.37492 29.2082168 10.5426778 29.2069501 9.19485551 28.3757677 8.36430444L20.6280584.622147924C19.7970871-.208403147 18.45077-.207346197 17.6212766.625107383 16.7917832 1.45734957 16.7930499 2.80517182 17.6242323 3.63572289L25.3719416 11.3780908zM79.1271928 12C79.6710967 12 80.2152119 11.7924137 80.6304799 11.3774525L88.3760943 3.63503308C89.207264 2.8042651 89.2081089 1.45622249 88.3777841.624397548 87.5476705-.207427395 86.200901-.20827296 85.3695201.622706418L77.6239057 8.36512582C76.792736 9.19589381 76.7918911 10.5439364 77.6222159 11.3757614 78.0376951 11.7919909 78.582444 12 79.1271928 12z"/>
  <path d="M12.573551 90.5972893C11.7995174 91.3840868 11.8102375 92.6491921 12.5977706 93.4226978L12.6035277 93.4282526C12.9920334 93.8099465 13.4964755 94 14.000719 94 14.5182634 94 15.0358078 93.7998289 15.4278869 93.4012721 16.2019206 92.6144746 16.1882226 91.3465919 15.4008881 90.5730862 14.613752 89.7995806 13.3479817 89.8104918 12.573551 90.5972893L12.573551 90.5972893zM71.00137 73C71.3050472 73 71.6130854 72.9307168 71.9022924 72.7848052 72.8866667 72.2875147 73.2821211 71.0852825 72.7857713 70.0994363 72.2892233 69.11359 71.088588 68.7173457 70.1044119 69.2146363L70.0933115 69.2201948C69.1089372 69.7174854 68.719033 70.9169382 69.2153828 71.9027845 69.5658407 72.5991898 70.2707208 73 71.00137 73L71.00137 73z"/>
</svg>
